<svg version="1.1" xmlns="http://www.w3.org/2000/svg" xmlns:xlink="http://www.w3.org/1999/xlink" width="224.95957" height="408.23145" viewBox="0,0,224.95957,408.23145"><g transform="translate(-201.7973,62.75263)"><g data-paper-data="{&quot;isPaintingLayer&quot;:true}" fill-rule="nonzero" stroke-width="2" stroke-linejoin="miter" stroke-miterlimit="10" stroke-dasharray="" stroke-dashoffset="0" style="mix-blend-mode: normal"><path d="M296.98651,218.83256c5.74006,-0.54223 49.35619,-10.3767 55.22536,-11.85764c6.39943,-1.61473 21.3433,16.61682 27.77243,16.15814c3.77659,-0.26944 11.63199,-1.33921 11.63199,-1.33921l-30.47219,14.82618l13.55476,8.57141l-1.4326,22.35145c0,0 -0.50167,28.23314 -6.55909,42.82185c-2.64886,6.37957 4.76508,13.31046 -4.48188,17.75457c-3.27445,1.57369 -11.9619,10.72129 -15.43903,10.96937c-5.04428,0.35988 -10.52129,-5.29209 -16.55503,-6.19459c-7.68265,-1.14914 -24.30501,3.48022 -24.30501,3.48022l-7.54395,-6.71516l3.8972,-20.60318c0,0 3.4163,-30.51035 6.49935,-50.25786c1.01308,-6.48892 -10.2967,-17.44159 -6.63848,-22.19265z" fill="#3c2c1f" stroke="#000000" stroke-linecap="round"/><path d="M342.16084,237.30701l-10.83241,94.40596" fill="none" stroke="#000000" stroke-linecap="round"/><path d="M332.39766,338.60203c-1.14509,10.65917 -10.68654,-4.45515 -21.54493,-3.68047c-10.8584,0.77469 -17.7768,6.48586 -17.7768,6.48586c0,0 10.87584,-19.92817 21.73423,-20.70286c10.8584,-0.77469 18.73259,7.23827 17.5875,17.89747z" fill="#000000" stroke="#000000" stroke-linecap="butt"/><path d="M371.53688,332.63227c-1.14509,10.65919 -13.08225,-3.87809 -23.94065,-3.10341c-10.85839,0.77469 -16.52618,16.56799 -15.3811,5.9088c1.14509,-10.65919 10.87584,-19.92817 21.73423,-20.70286c10.8584,-0.77469 18.7326,7.23827 17.58751,17.89747z" fill="#000000" stroke="#000000" stroke-linecap="butt"/><path d="M346.50806,201.81463c-7.17987,4.64645 -27.65058,2.61582 -27.65058,2.61582l-86.15687,-70.60867l-10.9588,-97.8058l20.78902,-4.21837l1.19726,6.73038l-12.21856,11.36889l28.32303,92.30622c0,0 29.9119,15.66556 45.37042,11.09511c7.991,-2.36263 15.44985,-7.51885 24.24986,-6.62514c26.09023,2.64967 32.96467,50.13283 18.30925,55.24735z" fill="#feed00" stroke="#000000" stroke-linecap="round"/><g><path d="M371.3093,204.99264l12.82121,-13.60162l17.66869,21.89783l17.71709,5.57451l-2.64388,-1.6447l-2.54228,4.07126l-34.70282,17.92721l-5.7409,-4.40123l-7.36936,5.78122l29.10292,-20.20817c0,0 -4.90878,4.06935 -9.13122,-2.27917c-3.88347,-5.83892 -15.41884,-13.37463 -15.41884,-13.37463z" fill="#feed00" stroke="#000000" stroke-linecap="round"/><path d="M391.82649,209.43762l-2.13427,4.17122l-4.70258,-2.9899l-4.16174,-2.39661l3.43855,-7.27485l6.61499,-4.1151l0.94507,12.60523z" fill="#ffa600" stroke="none" stroke-linecap="butt"/><path d="M393.00271,215.66708c0,0 -1.46179,3.65034 -3.30575,2.88386c-1.84393,-0.7665 -23.19336,-2.32735 -23.21159,-4.68655c-0.01824,-2.3592 1.46179,-3.65034 3.30574,-2.88386c1.84393,0.7665 23.2116,4.68654 23.2116,4.68654z" fill="#ffa600" stroke="none" stroke-linecap="butt"/><path d="M371.10983,236.14113l-3.26446,2.84424l-3.32959,-5.58527l35.36725,-11.77103l-28.7732,14.51205z" fill="#ffa600" stroke="none" stroke-linecap="butt"/><path d="M413.54568,220.06196l-6.29632,1.96084l-29.35794,14.21221l2.68061,-3.03016z" fill="#ffa600" stroke="none" stroke-linecap="butt"/><path d="M398.97691,208.69214l-1.80595,3.16666l21.70651,3.72027l-18.03389,-2.19362z" fill="#ffa600" stroke="none" stroke-linecap="butt"/></g><g><path d="M301.57831,201.72832c3.31472,-0.89973 1.1641,30.18382 -0.79083,36.91826c-2.12556,7.32222 -6.84973,3.63258 -8.02833,4.91118c-0.22696,0.24621 12.88744,0.73598 10.45321,3.50649c-4.49875,5.12027 -8.76331,-3.30672 -8.76331,-3.30672l-4.15786,5.91953l-5.17808,-7.80739l-13.57957,5.03325l2.04033,2.4773l-8.05729,-5.72611l24.21858,-50.58922c0,0 8.3388,6.06636 11.69195,8.98082z" fill="#feed00" stroke="#000000" stroke-linecap="round"/><path d="M284.92552,200.2795l7.54425,1.94327l20.6842,4.78403l-6.86782,2.46445l-29.1232,30.85949l22.2466,-29.93738l-14.484,-10.11387z" fill="#ffa600" stroke="none" stroke-linecap="butt"/><path d="M324.51004,206.33029c1.52943,-1.28392 3.3284,-0.49572 4.01811,1.7605c0.6897,2.25622 -29.13969,30.65432 -30.66913,31.93824c-1.52943,1.28392 -3.32842,0.49574 -4.01812,-1.76048c-0.6897,-2.25622 29.13969,-30.65432 30.66914,-31.93825z" fill="#ffa600" stroke="none" stroke-linecap="butt"/><path d="M290.00451,248.23828c0,0 12.27956,-10.86608 12.96007,-8.63996c0.6805,2.22612 0.00781,5.05857 -1.50252,6.32643c-1.51032,1.26785 -3.96685,-1.73507 -3.96685,-1.73507z" fill="#ffa600" stroke="none" stroke-linecap="butt"/><path d="M275.55956,248.61846l16.52851,-8.17181l-1.03455,5.86514l-3.46558,-2.08744z" fill="#ffa600" stroke="none" stroke-linecap="butt"/><path d="M292.36437,211.82527l-22.86091,29.07741l-0.3742,5.03701l-2.67203,-2.47981z" fill="#ffa600" stroke="none" stroke-linecap="butt"/></g><path d="M296.7607,156.97559c-0.67682,6.52654 20.94879,48.5105 20.94879,48.5105l-45.19964,-1.17621l-2.26164,-46.86256l-22.05932,-110.00516c0,0 4.81245,-9.30449 5.96532,-14.26604l1.16855,-0.13404c13.28305,0.61018 25.77198,4.62688 39.22635,0.98503c5.38464,-1.45752 9.11519,-3.99442 12.51841,-8.41035c0.7781,-1.00964 3.09524,-3.50439 4.67342,-2.77622c3.552,1.63891 8.97168,12.67819 8.97168,12.67819l60.63794,113.31601l15.04176,39.46902l-16.29988,18.89363l-5.07456,3.72371l-2.84734,-23.59664l0.89434,24.96104l-13.24482,20.7111c0,0 -9.70699,5.26907 -12.51278,6.02041c-11.34964,3.03918 -23.60076,2.63727 -34.93556,5.7124c-3.68418,0.9995 0.32122,-5.0102 -3.29211,-6.29861c-1.92579,-0.68669 -14.89381,4.00039 -15.15869,2.27348c-1.16613,-7.60267 5.62719,-40.7081 5.97454,-48.388" fill="#fffe8a" stroke="#000000" stroke-linecap="round"/><path d="M260.01235,23.88396c13.52048,-4.57374 26.63554,-9.162 41.01571,-10.2252c3.06672,-0.22673 13.81919,-0.72255 13.73134,4.06934c-0.11941,6.51264 -5.83152,10.76135 -11.37897,13.02793c-10.00072,4.08612 -34.39064,8.65938 -44.56911,4.65028c-7.24399,-2.85326 -6.64473,-10.53949 1.3105,-11.75969z" fill="#fffe8a" stroke="#000000" stroke-linecap="round"/><g stroke-linecap="butt"><path d="M257.71816,-27.30061l-8.66846,36.38484l2.053,13.55666l-0.65073,-2.12807l-8.87557,-15.45229l-1.36789,-53.64454l25.60306,-2.14933l1.95787,-0.25837l-12.33831,-0.27605l3.00577,23.58934z" fill="#feed00" stroke="#000000"/><path d="M253.25737,-24.61855l-4.24071,25.64607l3.25311,8.8941l-4.36187,0.22448l-3.82946,-11.07158l0.78135,-38.70896l-2.49752,-11.50448l1.24617,-0.38072l10.91599,8.46619l-0.81985,18.10279z" fill="#ffa700" stroke="none"/></g><g stroke-linecap="butt"><path d="M302.2127,-43.48659l5.45097,-14.64041c0,0 33.94027,3.40016 36.82537,-2.24616c0.56147,-1.09885 0.64756,-2.21409 1.69594,-0.47817c1.63601,2.70892 -0.46093,16.36389 -0.46093,16.36389l-27.70764,31.40429l1.57949,15.24255l0.17581,1.91086c0,0 -5.94203,-10.14526 -6.55539,-11.36371c-5.58119,-11.0872 -10.28656,-36.1448 -10.28656,-36.1448z" fill="#feed00" stroke="#000000"/><path d="M307.01437,-42.97807l4.13841,-8.96492l30.79549,6.3179l1.15169,-0.13322l-22.85955,-6.84886l-6.28047,35.65949c0,0 0.30538,6.73501 0.54976,10.09637c0.0307,0.42229 0.25789,1.10401 0.05406,1.26342c-0.49096,0.38391 -3.64121,-7.23426 -4.01136,-8.09254c-3.36817,-7.80998 -12.05265,-18.81571 -12.05265,-18.81571z" fill="#ffa700" stroke="none"/></g><path d="M281.35332,-43.12259l22.21189,12.90275c0,0 8.13657,12.43165 11.40207,20.50769c1.00293,2.48038 3.92015,6.90812 3.92015,6.90812c0,0 2.90104,122.17993 -17.78268,127.65353c-17.32354,4.58439 -50.83053,-93.65355 -50.83053,-93.65355l-7.50184,-30.40528l-0.29386,-11.88066l39.26577,-31.81548z" fill="#feed00" stroke="#000000" stroke-linecap="butt"/><path d="M316.06732,2.02773c4.29768,-0.26481 16.49054,7.41868 16.49054,7.41868l-6.95105,4.68474l1.74849,2.22262l2.31771,8.14764c0,0 -10.42048,4.98217 -13.81457,2.53341" fill="#feed00" stroke="#000000" stroke-linecap="round"/><path d="M251.99563,20.99712l-13.9388,1.72353l6.33906,9.2031l1.00196,-2.6445l-8.0356,-2.38604l9.33874,-12.39048" fill="#feed00" stroke="#000000" stroke-linecap="round"/><path d="M245.46644,11.13547l-42.66913,-10.04545" fill="none" stroke="#000000" stroke-linecap="round"/><path d="M213.57978,12.82035l32.42069,-0.52197" fill="none" stroke="#000000" stroke-linecap="round"/><path d="M245.18505,12.7791l-25.91483,7.17305" fill="none" stroke="#000000" stroke-linecap="round"/><path d="M345.94496,-23.53876l-27.24382,23.02854" fill="none" stroke="#000000" stroke-linecap="round"/><path d="M316.22826,0.75825c9.64844,-9.40171 32.52594,-8.75293 32.52594,-8.75293" fill="none" stroke="#000000" stroke-linecap="round"/><path d="M347.39996,1.78586l-27.48368,-0.17067" fill="none" stroke="#000000" stroke-linecap="round"/><path d="M276.51813,17.1506c3.67701,-0.56399 7.51193,-1.39624 11.23217,-1.50096c0.47217,-0.01329 1.23668,-0.33397 1.41326,0.10416c0.23129,0.57392 -5.7856,5.3154 -6.55268,5.37532c-1.72495,0.13476 -4.80741,-2.80946 -5.67954,-4.04189z" fill="#000000" stroke="#000000" stroke-linecap="round"/><path d="M269.52826,2.00032c1.51266,17.1465 -2.71639,13.08677 -6.11228,14.70807c-3.39589,1.62129 -6.18532,-8.83685 -6.18532,-8.83685c0,0 0.014,-32.36078 3.40988,-33.98208c3.39589,-1.62129 7.37506,10.96437 8.88772,28.11087z" fill="#ffffff" stroke="#000000" stroke-linecap="butt"/><path d="M261.3617,-1.70412c1.08048,12.24749 4.51923,30.11256 2.151,31.2432c-2.36822,1.13064 -9.64662,-14.90124 -10.7271,-27.14876c-1.08048,-12.24749 -0.03654,-23.09264 2.33168,-24.22327c2.36822,-1.13064 5.16395,7.88132 6.24442,20.12884z" fill="#000000" stroke="#000000" stroke-linecap="butt"/><path d="M304.91596,0.23472c1.52317,17.20645 -2.75804,13.20355 -6.22879,14.83504c-3.47075,1.63149 -4.81672,8.2795 -6.3399,-8.92692c-1.52317,-17.20645 0.05566,-32.47758 3.52641,-34.10908c3.47075,-1.63149 7.51911,10.99454 9.04228,28.20096z" fill="#ffffff" stroke="#000000" stroke-linecap="butt"/><path d="M305.14094,-4.36763c1.08797,12.29032 4.96022,30.86188 2.53979,31.99963c-2.42043,1.13775 -10.21696,-15.58911 -11.30494,-27.87944c-1.08797,-12.29032 -0.00781,-23.17592 2.41262,-24.31367c2.42043,-1.13775 5.26456,7.90316 6.35253,20.1935z" fill="#000000" stroke="#000000" stroke-linecap="butt"/><path d="M255.73186,-24.20558l15.91761,-17.63492l3.4091,-2.31866l-5.02343,-1.47944l13.29252,-4.09254l4.20146,-0.64902l-6.28326,-2.59903l5.58608,0.45054l12.73589,8.79186" fill="#feed00" stroke="#000000" stroke-linecap="butt"/><path d="M244.87398,-5.58259l-4.8904,-4.22588l-6.14103,-2.17479l6.77826,-4.53769l7.2523,-4.3421" fill="#feed00" stroke="#000000" stroke-linecap="butt"/><path d="M282.64754,109.17326c1.30368,0.32005 4.6627,-0.45422 5.37159,0.99291c2.37758,4.85345 23.76981,26.85616 18.82186,26.57198c-3.2948,-0.18923 -23.91848,-28.32251 -23.91848,-28.32251c0,0 -10.73042,-59.71124 -9.99067,-71.4616" fill="#ffaf36" stroke="#000000" stroke-linecap="round"/><path d="M309.16835,105.71696c7.85555,-12.03285 35.62272,33.32588 24.77264,26.83379c-5.87453,-3.51499 -24.66951,-25.31239 -24.55228,-27.87803c0.55332,-12.1103 -13.7626,-60.12922 -12.03587,-72.5864" fill="#ffaf36" stroke="#000000" stroke-linecap="round"/><path d="M308.14488,183.30091c3.07118,-3.33754 -0.40961,-27.69896 3.64835,-28.99381c13.08828,-4.17638 42.69463,36.29482 56.4019,36.41219" fill="none" stroke="#000000" stroke-linecap="round"/><path d="M370.68053,194.41313c0,0 18.341,18.25899 19.79417,27.03888" fill="none" stroke="#000000" stroke-linecap="round"/><path d="M309.28472,187.4306c1.29108,8.41727 -10.64661,42.78747 -9.5576,51.21741" fill="none" stroke="#000000" stroke-linecap="round"/><path d="M265.07318,33.04225c-2.73004,-0.5101 -4.87878,-2.78449 -7.47332,-3.84559" fill="none" stroke="#fcec41" stroke-linecap="round"/><path d="M307.04417,24.24479c1.44624,-1.31913 2.82214,-2.3982 4.51108,-3.39394" fill="none" stroke="#fcec41" stroke-linecap="round"/><path d="M281.02229,40.82195l8.90177,45.66372" fill="none" stroke="#fcec41" stroke-linecap="round"/><path d="M285.7287,48.37758l-0.74428,-4.85235" fill="none" stroke="#fcec41" stroke-linecap="round"/><path d="M288.41494,42.76252l1.26025,3.5907" fill="none" stroke="#fcec41" stroke-linecap="round"/><path d="M309.20937,205.15948l-16.19234,-63.60112l21.80637,62.23359z" fill="#fce541" stroke="#fcec41" stroke-linecap="round"/><path d="M309.20937,205.15948l-16.19234,-63.60112l21.80637,62.23359c0,0 70.31031,-4.24452 69.3667,-4.01466c-0.92746,0.22592 -74.98074,5.38219 -74.98074,5.38219z" fill="#fce541" stroke="#fcec41" stroke-linecap="round"/><path d="M377.38726,206.74059l-15.28868,-54.31444l24.59897,47.10013z" fill="#fce541" stroke="#fcec41" stroke-linecap="round"/><path d="M311.07852,94.62568c5.95449,34.21664 -4.9477,-10.48894 -13.45968,-8.39584c-8.51198,2.0931 -11.41043,50.19225 -17.36491,15.9756c-5.95449,-34.21664 -3.88123,-63.6515 4.63075,-65.7446c8.51198,-2.0931 20.23936,23.94818 26.19385,58.16483z" fill="#000000" stroke="#000000" stroke-linecap="butt"/></g></g></svg>