<svg version="1.1" xmlns="http://www.w3.org/2000/svg" xmlns:xlink="http://www.w3.org/1999/xlink" width="120.18038" height="317.25061" viewBox="0,0,120.18038,317.25061"><defs><linearGradient x1="317.08992" y1="179.65759" x2="318.12592" y2="205.46667" gradientUnits="userSpaceOnUse" id="color-1"><stop offset="0" stop-color="#44bb0a"/><stop offset="1" stop-color="#236a06"/></linearGradient><linearGradient x1="312.09303" y1="40.72903" x2="318.04738" y2="189.06521" gradientUnits="userSpaceOnUse" id="color-2"><stop offset="0" stop-color="#435d00"/><stop offset="1" stop-color="#44d20d"/></linearGradient><linearGradient x1="308.3054" y1="227.38052" x2="310.74994" y2="288.27958" gradientUnits="userSpaceOnUse" id="color-3"><stop offset="0" stop-color="#d6d6d6"/><stop offset="1" stop-color="#4b4b4b"/></linearGradient><linearGradient x1="320.44285" y1="228.78635" x2="322.86273" y2="289.07103" gradientUnits="userSpaceOnUse" id="color-4"><stop offset="0" stop-color="#d6d6d6"/><stop offset="1" stop-color="#4b4b4b"/></linearGradient><linearGradient x1="330.11339" y1="225.34527" x2="332.70919" y2="290.01262" gradientUnits="userSpaceOnUse" id="color-5"><stop offset="0" stop-color="#d6d6d6"/><stop offset="1" stop-color="#4b4b4b"/></linearGradient><linearGradient x1="316.02052" y1="125.89706" x2="318.00945" y2="175.44582" gradientUnits="userSpaceOnUse" id="color-6"><stop offset="0" stop-color="#4a4a4a"/><stop offset="1" stop-color="#bbbbbb"/></linearGradient></defs><g transform="translate(-255.95391,-34.64468)"><g stroke-miterlimit="10"><path d="M273.87014,351.89529l-8.16671,-147.06658c0,0 5.99997,-25.95975 16.39291,-26.78249c10.32104,-0.81704 34.80083,-2.35676 56.16936,-4.04836c23.17669,-1.83474 31.4867,24.73169 31.4867,24.73169l6.38189,152.70232z" fill="#000000" stroke="#000000" stroke-width="0" stroke-linecap="butt"/><path d="M337.12603,191.77866c0.28608,7.12698 -8.22056,13.25531 -19.00011,13.68801c-10.77955,0.4327 -19.75003,-4.99408 -20.03611,-12.12106c-0.28608,-7.12698 8.22055,-13.25531 19.00011,-13.68801c10.77955,-0.4327 19.75003,4.99408 20.03611,12.12106z" fill="url(#color-1)" stroke="#000000" stroke-width="2.5" stroke-linecap="butt"/><path d="M368.1895,123.82239c1.12316,27.98038 -20.69314,64.0607 -50.92144,65.27409c-30.2283,1.21339 -57.42175,-32.89965 -58.54491,-60.88002c-1.12316,-27.98037 22.47123,-51.64659 52.69953,-52.85998c30.2283,-1.21339 55.64367,20.48554 56.76683,48.4659z" fill="#53ff10" stroke="#000000" stroke-width="0" stroke-linecap="butt"/><path d="M259.30184,130.93179l-3.34792,-61.08174l10.75536,4.21584l31.26986,-39.42121l23.0998,23.81247l22.25018,-19.6943l14.15074,32.43403l10.77423,-8.17843l0.16339,61.96101l-16.96556,-23.84782l-78.59272,3.92938z" fill="#53ff10" stroke="#000000" stroke-width="0" stroke-linecap="round"/><path d="M262.34634,146.73245l-3.36394,-44.94938l107.62061,-3.8416l0.00144,44.60597z" fill="#53ff10" stroke="none" stroke-width="0" stroke-linecap="butt"/><path d="M259.30184,130.93179l-3.34792,-61.08174l10.75536,4.21584l31.26986,-39.42121l23.0998,23.81247l22.25018,-19.6943l14.15074,32.43403l10.77423,-8.17843l0.16339,61.96101l-2.25913,-3.17557l0.44609,20.74355l-104.25811,4.18501l-1.54338,-18.66519z" fill="#53ff10" stroke="#000000" stroke-width="0" stroke-linecap="round"/><path d="M317.26807,189.09649c-30.2283,1.21339 -57.42175,-32.89965 -58.54491,-60.88002c-0.07765,-1.93441 -0.03717,-3.8482 0.1155,-5.73537l-2.88474,-52.63106l10.75536,4.21584l31.26986,-39.42121l23.0998,23.81247l22.25018,-19.6943l14.15074,32.43403l10.77423,-8.17843l0.16339,61.96101l-0.20077,-0.2822c0.61095,27.65749 -21.03557,63.19851 -50.94865,64.39925z" fill="url(#color-2)" stroke="#000000" stroke-width="0" stroke-linecap="butt"/><path d="M345.32951,102.8212c8.23151,-0.33042 15.07896,3.74867 15.2942,9.11091c0.21525,5.36224 -6.28322,9.97705 -14.51473,10.30747c-8.23151,0.33042 -15.07896,-3.74867 -15.2942,-9.11091c-0.21525,-5.36224 6.28322,-9.97705 14.51473,-10.30747z" fill="#000000" stroke="#000000" stroke-width="2.5" stroke-linecap="butt"/><path d="M329.10002,111.54025c0.21416,2.70036 -6.24384,5.41537 -14.42434,6.06414c-8.18051,0.64877 -14.98571,-1.01437 -15.19987,-3.71473c-0.21416,-2.70036 6.24383,-5.41537 14.42434,-6.06414c8.18051,-0.64877 14.98572,1.01438 15.19988,3.71473z" fill-opacity="0.18431" fill="#000000" stroke="none" stroke-width="0" stroke-linecap="butt"/><path d="M298.87599,113.67198c0.21525,5.36224 -6.28322,9.97706 -14.51473,10.30748c-8.23151,0.33042 -15.07896,-3.74868 -15.2942,-9.11092c-0.21525,-5.36224 6.28322,-9.97705 14.51473,-10.30747c8.23151,-0.33042 15.07896,3.74867 15.2942,9.11091z" fill="#000000" stroke="#000000" stroke-width="2.5" stroke-linecap="butt"/><path d="M356.87778,112.1321c0.59122,5.22518 -4.19086,9.97234 -10.68104,10.60307c-6.49019,0.63073 -12.23083,-3.0938 -12.82204,-8.31898c-0.59123,-5.22519 4.19085,-9.97235 10.68103,-10.6031c6.49019,-0.63073 12.23084,3.09382 12.82206,8.31899z" fill="#ffffff" stroke="#000000" stroke-width="2.5" stroke-linecap="butt"/><path d="M295.14347,113.01274c0.59674,5.05293 -4.35298,9.65753 -11.05549,10.28466c-6.70251,0.62712 -12.61973,-2.9607 -13.21646,-8.01364c-0.59674,-5.05295 4.35298,-9.65755 11.05549,-10.28467c6.70251,-0.62712 12.61973,2.96071 13.21646,8.01365z" fill="#ffffff" stroke="#000000" stroke-width="2.5" stroke-linecap="butt"/><path d="M304.20135,234.31166l4.78957,-6.95866l1.38889,3.47824l2.41648,11.31916l1.43787,6.28836l-0.90598,14.79139l0.05488,9.70937l-1.31885,3.68065c0,0 -0.2894,8.13024 -3.1777,11.63795c-0.75896,0.92172 -1.31572,-4.64626 -1.31572,-4.64626l-0.93809,-8.97l1.52261,-6.30228l-4.66252,-34.20926z" fill="url(#color-3)" stroke="#000000" stroke-width="2.5" stroke-linecap="round"/><path d="M318.33247,229.14712l4.80569,10.9138l1.40154,20.01666l0.97072,16.73333c0,0 -1.18596,6.16436 -2.04405,9.32502c-0.07375,0.27166 -1.01769,3.03913 -1.35009,2.96291c-0.11143,-0.02554 -0.09501,-2.36681 -0.10403,-2.59173c-0.11544,-2.87589 -1.26089,-8.91049 -1.26089,-8.91049l-3.44325,-48.68444z" fill="url(#color-4)" stroke="#000000" stroke-width="2.5" stroke-linecap="round"/><path d="M330.43965,225.92279l1.3105,2.95004l0.09253,1.94313l3.3674,9.75655l-1.25396,13.45744l2.26521,19.18467c0,0 0.02504,9.8558 -2.92311,14.29731c-0.18553,0.27951 -0.60635,2.47962 -0.60887,2.48093c-0.2048,0.10656 -0.47642,-0.15862 -0.59289,-0.34555c-0.6284,-1.00858 -0.51185,-5.13563 -0.51185,-5.13563l-1.9682,-10.75063l-3.12661,-26.94536l0.13133,-12.27261l3.19373,-9.18583z" fill="url(#color-5)" stroke="#000000" stroke-width="2.5" stroke-linecap="round"/><path d="M286.245,113.34364c0.22055,2.85048 -1.06118,5.38338 -2.86282,5.65738c-1.80164,0.27399 -3.44095,-1.81467 -3.6615,-4.66516c-0.22055,-2.8505 1.06117,-5.38339 2.86281,-5.65739c1.80164,-0.27399 3.44095,1.81468 3.66151,4.66517z" fill="#000000" stroke="#000000" stroke-width="2.5" stroke-linecap="butt"/><path d="M347.76986,112.7064c0.20367,2.60183 -0.9969,4.91509 -2.68152,5.1668c-1.68462,0.25171 -3.21539,-1.65345 -3.41905,-4.25528c-0.20367,-2.60184 0.99689,-4.9151 2.68151,-5.16681c1.68462,-0.25171 3.2154,1.65346 3.41906,4.25528z" fill="#000000" stroke="#000000" stroke-width="2.5" stroke-linecap="butt"/><path d="M264.50455,150.77007l-1.26678,-32.29265l8.03328,7.71633l21.95131,8.89151l9.20846,-6.2017l14.30281,6.83417l12.48164,-7.1212l16.90229,4.83835l20.41796,-17.52767l-2.00009,33.36952l-6.41241,18.27674l-19.14332,6.50425l-20.54091,6.70978l-16.4971,-4.6767l-23.21462,-3.45883z" fill="url(#color-6)" stroke="#000000" stroke-width="2.5" stroke-linecap="round"/><path d="M364.11618,149.29048l-9.28426,4.31326l-61.34896,3.0931l-28.78715,-6.41038" fill="none" stroke="#000000" stroke-width="2.5" stroke-linecap="round"/><path d="M358.8442,162.6172c-4.0816,5.44167 -8.62109,9.09999 -14.81764,10.38625c-4.86795,0.64348 -5.7671,2.87706 -10.7733,2.98871c-0.59694,0.23523 -3.86765,3.1594 -4.57344,2.90461c-0.01959,-0.00708 -2.02062,0.79737 -2.04017,0.78948c-4.39808,0.03412 -2.50521,1.25216 -6.7966,0.85371c-7.5227,-0.37921 -20.78598,-6.40774 -28.27096,-6.18848c-0.70676,1.44621 -1.98267,4.41464 -4.01547,4.18448c-0.97117,-0.10996 -2.17939,-2.60411 -2.95971,-4.27452c-9.15533,-1.35843 -15.42708,-10.83391 -18.84452,-19.13972l-0.39994,-1.05525c0,0 -0.43378,-1.14592 0.69213,-1.59817c-0.4114,-0.19858 -0.75504,-0.44816 -0.99842,-0.76405c-0.58185,-0.75523 -0.34377,-3.60188 -0.38337,-4.58843c-0.19165,-4.77451 -1.49933,-16.22942 -1.04326,-20.98253c0.13278,-1.3838 0.07444,-4.96058 2.50925,-4.8634c0.81887,0.03268 1.02974,1.27716 1.49497,1.95183c0.87241,1.26515 1.77398,1.95454 3.30199,2.41969c0,0 1.19093,0.37972 0.81121,1.57065c-0.01895,0.05944 -0.03992,0.11496 -0.06266,0.16681c0.00409,0.0358 0.00492,0.05642 0.00492,0.05642c0.14536,3.7421 0.52987,7.74346 1.23313,11.4295c0.25778,1.35112 1.36255,9.31072 1.65461,10.6543c0.03705,0.17042 0.07701,0.42534 0.10101,0.68786c0.88636,-1.37283 3.05428,-3.65588 3.37797,-4.06499c1.7464,-2.66305 3.39594,-16.6367 7.44445,-15.54805c1.87691,0.50471 2.91963,2.77909 3.70442,4.27041c1.41313,2.68533 3.05672,12.13336 4.23682,14.93275c0.38335,0.90939 1.45737,2.38771 1.57595,3.53145c0.51562,-0.97859 2.03634,-1.7768 2.67497,-2.53125c2.7435,-3.24106 4.47319,-13.13574 7.49212,-16.16703c0.82187,-0.82524 2.67914,-3.87192 3.9532,-3.79763c2.05624,0.1199 3.81923,5.54223 4.63554,7.02318c0.8938,2.12061 2.83562,10.57918 4.15762,12.4528c0.53446,0.75747 0.89214,2.689 1.68664,2.21133c5.12939,-3.08391 9.13008,-15.50836 13.19296,-19.91105c0.5916,-0.46113 1.02488,-1.39914 1.7748,-1.3834c0.85897,0.01803 1.49085,0.88068 2.12056,1.46519c2.29334,2.12871 4.5357,12.93001 5.97448,15.6669c0.46029,0.87556 0.99498,1.70996 1.49374,2.56419c0.26649,0.45642 0.12835,1.96602 0.42386,1.52784c2.18213,-3.23576 5.87702,-5.74354 8.19975,-9.12945c1.96381,-2.84977 3.38823,-12.26025 5.22614,-15.17858c1.54269,-2.44955 2.54065,-5.06973 4.35242,-7.36744l0.08581,-0.44203c0,0 0.04414,-0.12462 0.14423,-0.27846c-0.08538,-0.22974 -0.09956,-0.51883 0.0365,-0.87514c0.44592,-1.16775 1.61368,-0.72184 1.61368,-0.72184l0.84627,0.32348c3.63841,1.80462 2.2317,6.50699 1.57889,9.93007c-0.10968,2.65394 1.02028,12.11351 0.43104,14.72699c-0.56475,2.50485 -2.95494,6.2398 -5.46244,8.40007c0.05225,0.0376 0.10489,0.08055 0.15776,0.12934l-0.00002,0.00003c0.91862,0.84772 0.0709,1.76635 0.0709,1.76635l-0.15106,0.16369c-0.33019,0.35572 -0.66039,0.71143 -0.99058,1.06715c-0.20621,0.31466 -0.41747,0.62789 -0.63315,0.9398c0.28231,2.31321 0.16323,4.82935 -1.25003,6.71356zM267.69057,153.1814l0.37518,0.9924c0.87222,2.13844 1.89576,4.16486 3.1065,5.99599l0.08775,-0.6776c0.40301,-1.93962 0.71963,-3.97969 1.44295,-5.82797c-0.64954,-0.12357 -1.29825,-0.24659 -1.94603,-0.36814c-1.02419,-0.05923 -2.168,-0.13546 -3.18639,-0.3441c0.08237,0.12995 0.12003,0.22943 0.12003,0.22943zM314.26325,174.96093c1.37441,0.1272 5.42814,0.39409 6.81693,-0.33162c0.23388,-0.12222 2.53269,0.24042 2.76738,0.2529c1.91342,0.10171 -0.90358,-3.23156 1.0268,-3.21413c-0.6316,-1.05126 -1.17536,-2.16942 -1.58925,-2.8326c-1.55216,-2.01237 -3.55281,-7.35687 -4.54771,-9.70515c-0.06802,-0.16056 -0.17579,-0.39434 -0.27139,-0.633c-0.09694,0.21226 -0.20435,0.42046 -0.26935,0.5764c-0.76596,1.83749 -1.76225,3.45533 -2.66852,5.23133c-0.48766,0.95567 -0.67084,6.59532 -1.29584,8.37087c-0.12312,0.34978 -0.22023,-1.7665 -0.38753,-1.55812c0.13553,0.00607 0.27107,0.01253 0.40662,0.01942zM343.60848,170.53865c1.81971,-0.38007 3.61276,-0.6 5.33012,-0.9871c-0.68285,-0.81597 -1.42677,-2.02192 -1.64723,-2.38298c-1.45588,-2.38438 -3.24664,-7.72124 -4.23338,-10.32827c-0.14483,-0.38266 -0.34712,-0.74855 -0.5063,-1.10681c-0.649,1.96675 -2.47176,4.74879 -3.0012,5.84511c-1.4902,3.08578 -2.73488,10.81914 -5.57992,12.56548c3.42436,-0.18522 6.29635,-3.1683 9.63791,-3.60543zM354.93481,166.67085c1.28178,-1.16448 2.58745,-5.63702 2.72473,-7.48951c-1.44413,1.83871 -2.27152,6.50197 -3.72096,8.29299c0.3386,-0.24129 0.67086,-0.50788 0.99624,-0.80347zM354.66071,155.4934c-3.15245,-0.13338 -6.29649,-0.09257 -9.4344,0.06446c0.94734,2.0211 1.64732,4.20278 2.84105,6.23876c0.4195,0.71549 1.9136,5.74843 2.47177,6.12947c0.40589,0.27708 0.51935,-0.83612 0.81603,-1.22793c0.82087,-1.08405 1.02494,-4.9659 1.82788,-6.0761c1.32159,-1.82734 2.84702,-3.52205 4.22402,-5.31239c-0.70122,0.13362 -2.32176,0.16669 -2.74634,0.18373zM323.76307,157.7662c-0.74895,0.13665 -1.49742,0.24856 -2.24546,0.33856c1.09878,2.01975 2.50588,7.62382 3.81687,9.2989c0.64867,1.03362 1.539,3.33977 2.52397,4.25822c0.29993,-0.00393 0.5999,-0.00886 0.89985,-0.01477c0.22399,-0.22742 0.44726,-0.53744 0.67132,-0.69233c1.24372,-0.85977 2.59901,-1.3455 3.76878,-2.30348c3.38487,-2.77202 4.28774,-9.17326 6.23998,-12.68486c-5.23497,0.46505 -10.45659,1.15526 -15.67532,1.79976zM294.25929,158.01521c-0.11194,-0.19993 0.07097,0.45828 0.04491,0.68593c-0.04923,0.43011 -0.17599,0.84776 -0.2642,1.27159c-0.19282,0.92642 -0.45974,1.83586 -0.69012,2.75366c-0.53028,2.11257 -0.41493,7.03886 -1.01418,9.1154c4.30162,-0.14533 10.35518,3.26912 14.66747,3.08413c-3.96401,-2.40326 -10.50555,-12.91287 -12.74386,-16.9107zM273.7077,160.00077l-0.10309,0.85213c0,0 -0.13419,1.06762 -1.14411,1.09728c2.54377,3.20633 6.49698,8.46859 10.71996,9.49874c-2.36772,-4.75009 -4.8234,-13.05284 -7.8503,-17.28491c-0.04244,-0.00804 -0.08487,-0.01608 -0.12731,-0.02412c-0.84136,1.77706 -1.09649,3.94213 -1.49515,5.86088zM290.93951,156.76724c-1.66873,-0.20966 -3.32124,-0.48695 -4.96519,-0.79675c-2.45318,-0.33587 -4.90634,-0.74962 -7.35312,-1.1939c1.85637,3.37823 3.04307,7.17278 4.83047,10.60588c0.62772,1.20566 1.97245,5.28207 2.64172,6.48587c1.20835,0.03862 2.41687,0.04714 3.62562,0.03372c0.80024,-2.78074 0.9113,-8.3954 1.61972,-11.21308c0.19172,-0.76252 0.32252,-2.76314 0.74186,-3.8111c-0.38088,-0.03564 -0.76124,-0.07252 -1.14109,-0.11063zM288.21296,175.64316c0.15057,-0.33348 0.37236,-0.80774 0.57835,-1.24431c-0.41848,0.00146 -0.83693,0.00009 -1.25538,-0.00442c0.20285,0.33864 0.58399,0.86709 0.67703,1.24872zM266.18489,125.72178c-0.00061,-0.00069 -0.00147,-0.00164 -0.00257,-0.00287c-0.08477,1.27703 -0.31364,2.76169 -0.31252,3.09014c0.01316,3.85089 1.13629,14.35243 1.291,18.20651c0.0131,0.32636 -0.15788,2.41166 -0.10528,3.06847c0.78014,0.13501 1.56223,0.27527 2.34602,0.41912c0.96445,0.11229 1.9272,0.22959 2.88932,0.35854c-0.17437,-0.83835 -0.27841,-1.64345 -0.37246,-2.05405c-1.08862,-4.75215 -2.52076,-16.25859 -2.73164,-21.14145c-1.10867,-0.44783 -2.22813,-1.06746 -3.00185,-1.9444zM286.98186,136.02745c-0.21814,-0.41863 -1.72616,-3.78089 -2.76984,-3.05315c-2.08875,1.45644 -2.73518,12.48773 -4.13769,14.62901c-1.04277,1.32241 -2.06851,2.81225 -3.3366,3.97142c3.24221,0.60185 6.45751,1.34073 9.70892,1.94768c2.10108,0.28371 4.20159,0.50705 6.29696,0.63865c-1.96234,-3.70045 -3.82255,-14.41201 -5.76176,-18.13362zM348.76209,152.20007c2.8256,-0.37296 7.1149,-0.17452 9.72458,-1.24741c1.47666,-0.60709 2.72255,-2.305 3.52672,-3.59821c0.70746,-1.13767 1.75054,-2.22799 2.32726,-3.43136c1.1987,-2.50114 -0.27166,-12.8165 -0.15241,-15.49937c0.24732,-1.32136 1.43462,-5.65029 0.49982,-6.96637l-0.35979,0.86631c-1.75674,2.22022 -2.7103,4.78784 -4.2065,7.16223c-1.85517,2.94406 -3.2945,12.37828 -5.27539,15.25282c-1.89483,2.73858 -4.16453,5.39801 -6.70614,7.58529c0.20736,-0.03948 0.41463,-0.08076 0.62184,-0.12392zM298.67119,159.6414c2.31283,2.62417 5.2153,7.86993 8.26967,9.6299c0.82625,0.27551 2.37858,1.59872 3.10305,1.6437c0.47714,0.02963 1.59164,-1.25209 1.64903,-1.31106c1.85114,-1.9021 2.69937,-7.81794 3.78814,-10.24584c0.09628,-0.2147 0.21376,-0.55217 0.35307,-0.94531c-3.71593,-0.0148 -7.42455,-0.39542 -11.13241,-0.7932c-2.60964,-0.06738 -5.21682,-0.18551 -7.80913,-0.35761c0.70272,0.88784 1.35055,1.89378 1.77858,2.37942zM341.92164,152.03973c-1.36418,-2.33131 -2.62377,-4.7539 -3.99129,-7.10418c-0.51106,-0.87834 -3.21881,-11.76252 -3.29248,-10.63123c-3.11663,3.3773 -5.71861,13.22017 -9.04816,16.37075c-0.90011,0.85172 -3.13884,3.093 -4.68852,3.96488c6.68722,-1.71456 13.49295,-1.20464 20.27048,-1.54275c0.23907,-0.35545 0.48827,-0.70824 0.74998,-1.05747zM316.72593,152.99154c-1.74073,-2.29682 -3.38186,-4.76299 -4.50298,-7.42291c-0.72158,-1.30909 -2.01265,-9.27291 -2.73178,-10.58003c-0.12255,-0.22275 -0.3396,-0.59138 -0.49436,-0.92507c-0.26724,0.39234 -0.69835,0.84788 -0.93305,1.11993c-1.27431,1.47716 -2.091,9.32944 -3.40953,10.75827c-2.58053,2.79637 -4.48736,6.02525 -7.24023,8.46985c2.28503,0.1687 4.57165,0.42262 6.85956,0.67509c4.96342,0.12177 9.93763,0.0634 14.8475,-0.08574c-1.11828,-0.17961 -1.72885,-1.13028 -2.39513,-2.0094z" fill="#000000" stroke="none" stroke-width="0.5" stroke-linecap="butt"/><path d="M267.54042,152.91206c1.0184,0.20863 2.19982,0.27536 3.22401,0.33459c0.64778,0.12156 1.3214,0.25594 1.97094,0.3795c-0.72332,1.84829 -1.05649,3.97383 -1.45949,5.91346l-0.09157,0.67872c-1.21074,-1.83113 -2.28051,-3.94258 -3.15273,-6.08102l-0.37153,-0.9955c0,0 -0.03726,-0.09979 -0.11963,-0.22973z" fill="#ffffff" stroke="none" stroke-width="0.5" stroke-linecap="butt"/><path d="M292.12032,156.8475c-0.41934,1.04796 -0.54084,3.06913 -0.73255,3.83165c-0.70843,2.81768 -0.847,8.48728 -1.64724,11.26803c-1.20875,0.01342 -2.44011,0.00975 -3.64846,-0.02887c-0.66927,-1.20381 -2.03852,-5.28739 -2.66624,-6.49306c-1.78742,-3.4331 -2.98337,-7.30602 -4.83975,-10.68426c2.44678,0.44429 4.93832,0.84372 7.3915,1.17959c1.64395,0.30981 3.32949,0.60258 4.99822,0.81224c0.37983,0.03812 0.76365,0.07903 1.14452,0.11468z" fill="#ffffff" stroke="none" stroke-width="0.5" stroke-linecap="butt"/><path d="M296.84871,157.23807c2.59231,0.1721 5.22574,0.26737 7.83538,0.33474c3.70786,0.39778 7.47985,0.80495 11.19579,0.81975c-0.13931,0.39315 -0.25538,0.73415 -0.35166,0.94885c-1.08878,2.4279 -1.94786,8.39486 -3.799,10.29696c-0.05739,0.05897 -0.27418,6.41322 -0.75132,6.38359c-0.72448,-0.04499 -3.21466,-6.4253 -4.0409,-6.70081c-3.05437,-1.75997 -5.99992,-7.07275 -8.31275,-9.69692c-0.42803,-0.48564 -1.07282,-1.49832 -1.77552,-2.38617z" fill="#ffffff" stroke="none" stroke-width="0.5" stroke-linecap="butt"/><path d="M339.47844,155.9365c-1.95224,3.51161 -2.63885,12.24347 -6.02373,15.01549c-1.16978,0.95799 -1.92625,3.26269 -3.16996,4.12246c-0.22406,0.15489 -1.32175,-3.60863 -1.54574,-3.38121c-0.29995,0.00593 -0.60505,0.00834 -0.905,0.01228c-0.98497,-0.91845 -1.89824,-3.25223 -2.54691,-4.28586c-1.31099,-1.67509 -2.71581,-7.31673 -3.81459,-9.33648c0.74803,-0.09 1.5003,-0.20851 2.24926,-0.34516c5.21874,-0.6445 10.5217,-1.33646 15.75667,-1.80151z" fill="#ffffff" stroke="none" stroke-width="0.5" stroke-linecap="butt"/><path d="M357.44563,155.27785c-1.377,1.79035 -2.8927,3.52977 -4.21429,5.35711c-0.80294,1.1102 -1.06654,5.02787 -1.88741,6.11192c-0.29667,0.3918 -0.41499,1.50363 -0.82088,1.22655c-0.55817,-0.38104 -2.08143,-5.44 -2.50093,-6.15549c-1.19373,-2.03597 -1.88879,-4.2686 -2.83612,-6.2897c3.13791,-0.15704 6.35019,-0.2097 9.50263,-0.07632c0.42458,-0.01704 2.05575,-0.04046 2.75698,-0.17408z" fill="#ffffff" stroke="none" stroke-width="0.5" stroke-linecap="butt"/><path d="M348.16956,152.28349c2.5416,-2.18728 4.80271,-4.85169 6.69755,-7.59028c1.98089,-2.87454 3.3649,-12.22716 5.22007,-15.17122c1.4962,-2.37439 2.45508,-4.93758 4.21182,-7.1578l0.41774,-0.9478c0.9348,1.31609 -0.23916,5.65886 -0.48647,6.98023c-0.11926,2.68287 1.35378,13.04776 0.15508,15.54891c-0.57673,1.20337 -1.63549,2.31198 -2.34293,3.44965c-0.80417,1.2932 -2.07184,2.99987 -3.5485,3.60696c-2.60969,1.0729 -6.9343,0.86633 -9.75991,1.2393c-0.20721,0.04318 -0.35708,0.00258 -0.56444,0.04205z" fill="#ffffff" stroke="none" stroke-width="0.5" stroke-linecap="butt"/><path d="M341.2154,153.12141c-6.77753,0.33811 -13.66819,-0.16769 -20.35542,1.54688c1.54969,-0.87188 3.7859,-3.11721 4.68601,-3.96892c3.32955,-3.15058 6.00182,-13.06009 9.11845,-16.43739c0.07367,-1.1313 2.80143,9.77708 3.31249,10.65541c1.36752,2.35028 2.62668,4.81025 3.99086,7.14156c-0.26171,0.34923 -0.51333,0.70701 -0.75239,1.06246z" fill="#ffffff" stroke="none" stroke-width="0.5" stroke-linecap="butt"/><path d="M319.16354,155.02731c-4.90987,0.14915 -9.9501,0.22527 -14.91352,0.10349c-2.28791,-0.25247 -4.59393,-0.52491 -6.87896,-0.6936c2.75287,-2.4446 4.66062,-5.72618 7.24116,-8.52255c1.31853,-1.42882 2.18332,-9.30365 3.45763,-10.78081c0.2347,-0.27205 0.67093,-0.72668 0.93817,-1.11903c0.15476,0.33368 0.37666,0.70369 0.49921,0.92644c0.71913,1.30712 2.03704,9.29256 2.75862,10.60166c1.12112,2.65991 2.76299,5.17627 4.50372,7.47309c0.66628,0.87912 1.2757,1.83171 2.394,2.01132z" fill="#ffffff" stroke="none" stroke-width="0.5" stroke-linecap="butt"/><path d="M292.78138,154.19384c-2.09537,-0.1316 -4.21936,-0.33982 -6.32044,-0.62352c-3.25141,-0.60695 -6.52409,-1.36839 -9.7663,-1.97025c1.26809,-1.15917 2.28738,-2.6677 3.33014,-3.99011c1.40252,-2.14128 2.1013,-13.22916 4.19004,-14.68559c1.04368,-0.72774 2.57841,2.64408 2.79654,3.06272c1.93921,3.72161 3.80766,14.50629 5.77001,18.20675z" fill="#ffffff" stroke="none" stroke-width="0.5" stroke-linecap="butt"/><path d="M269.1907,127.61633c0.21087,4.88286 1.65608,16.48616 2.7447,21.23831c0.09406,0.41061 0.1964,1.21628 0.37078,2.05464c-0.96212,-0.12895 -1.9397,-0.24387 -2.90415,-0.35616c-0.78379,-0.14385 -1.57924,-0.2858 -2.35939,-0.42081c-0.0526,-0.65681 0.11275,-2.74399 0.09965,-3.07034c-0.15471,-3.85408 -1.27956,-14.44777 -1.29271,-18.29867c-0.00112,-0.32845 0.23536,-1.81576 0.32012,-3.09279c0.0011,0.00123 0.00196,0.00217 0.00257,0.00286c0.77373,0.87694 1.90977,1.4951 3.01845,1.94294z" fill="#ffffff" stroke="none" stroke-width="0.5" stroke-linecap="butt"/><path d="M271.78382,96.11424c0,0 10.66872,-0.22678 17.1986,-0.36559c0.53773,-0.01143 4.88369,0.03639 6.74654,3.16611c2.90572,4.88181 3.57261,13.65537 3.57261,13.65537" fill="none" stroke="#000000" stroke-width="2.5" stroke-linecap="round"/><path d="M331.10022,111.29371c0,0 -0.76879,-6.96045 0.55845,-12.36208c0.73339,-2.98474 3.16701,-5.89488 4.21668,-5.94267c5.72552,-0.26066 25.26085,-1.15005 25.26085,-1.15005" fill="none" stroke="#000000" stroke-width="2.5" stroke-linecap="round"/></g></g></svg>