<svg version="1.1" xmlns="http://www.w3.org/2000/svg" xmlns:xlink="http://www.w3.org/1999/xlink" width="167.66232" height="308.6638" viewBox="0,0,167.66232,308.6638"><defs><linearGradient x1="319.66189" y1="172.7087" x2="324.11889" y2="351.48552" gradientUnits="userSpaceOnUse" id="color-1"><stop offset="0" stop-color="#676767"/><stop offset="1" stop-color="#313131"/></linearGradient><linearGradient x1="351.11479" y1="172.98606" x2="355.62095" y2="353.73433" gradientUnits="userSpaceOnUse" id="color-2"><stop offset="0" stop-color="#2e2e2e"/><stop offset="1" stop-color="#2b2b2b"/></linearGradient><linearGradient x1="289.29687" y1="173.27817" x2="293.80303" y2="354.02644" gradientUnits="userSpaceOnUse" id="color-3"><stop offset="0" stop-color="#2e2e2e"/><stop offset="1" stop-color="#2b2b2b"/></linearGradient><linearGradient x1="321.01789" y1="172.43205" x2="321.7016" y2="199.85601" gradientUnits="userSpaceOnUse" id="color-4"><stop offset="0" stop-color="#575757"/><stop offset="1" stop-color="#9c9c9c"/></linearGradient><linearGradient x1="318.52477" y1="80.07111" x2="321.17745" y2="186.47366" gradientUnits="userSpaceOnUse" id="color-5"><stop offset="0" stop-color="#1a1a1a"/><stop offset="1" stop-color="#9c9c9c"/></linearGradient><radialGradient cx="355.2702" cy="102.40333" r="26.45435" gradientUnits="userSpaceOnUse" id="color-6"><stop offset="0" stop-color="#000000" stop-opacity="0.92549"/><stop offset="1" stop-color="#000000" stop-opacity="0"/></radialGradient><radialGradient cx="283.13702" cy="107.73503" r="25.35587" gradientUnits="userSpaceOnUse" id="color-7"><stop offset="0" stop-color="#000000" stop-opacity="0.92549"/><stop offset="1" stop-color="#000000" stop-opacity="0"/></radialGradient><linearGradient x1="272.75985" y1="47.65856" x2="278.41851" y2="132.66923" gradientUnits="userSpaceOnUse" id="color-8"><stop offset="0" stop-color="#9c9c9c"/><stop offset="1" stop-color="#2c2c2c"/></linearGradient><linearGradient x1="359.40968" y1="46.6703" x2="361.60936" y2="134.90211" gradientUnits="userSpaceOnUse" id="color-9"><stop offset="0" stop-color="#9c9c9c"/><stop offset="1" stop-color="#2c2c2c"/></linearGradient><linearGradient x1="285.7127" y1="190.99214" x2="286.23081" y2="211.77436" gradientUnits="userSpaceOnUse" id="color-10"><stop offset="0" stop-color="#878787"/><stop offset="1" stop-color="#848484"/></linearGradient><linearGradient x1="124.40171" y1="100.23702" x2="124.43287" y2="101.48663" gradientUnits="userSpaceOnUse" id="color-11"><stop offset="0" stop-color="#878787"/><stop offset="1" stop-color="#848484"/></linearGradient></defs><g transform="translate(-233.00674,-45.64168)"><g stroke-miterlimit="10"><path d="M276.99623,349.02056l-5.79909,-147.17697c0,0 5.98224,-25.85533 15.77732,-26.50489c9.72732,-0.64505 32.79374,-1.77692 52.93302,-3.11244c21.84341,-1.44853 29.3256,25.25165 29.3256,25.25165l4.04635,152.78202z" fill="url(#color-1)" stroke="#000000" stroke-width="0" stroke-linecap="butt"/><path d="M332.71164,354.30548l7.29377,-98.92145c0,0 -8.48758,-80.81841 1.7247,-80.16905c9.41555,0.5987 14.19847,-2.71624 18.7462,-2.42707c4.57942,0.29118 14.29276,29.50773 14.29276,29.50773l2.6786,147.25477z" fill="url(#color-2)" stroke="#000000" stroke-width="0" stroke-linecap="butt"/><path d="M271.79496,350.93535l-4.66246,-147.20532c0,0 8.24541,-29.66426 12.80462,-30.18328c4.52767,-0.51542 9.46982,2.55706 18.84385,1.48993c10.16723,-1.15744 5.7174,79.98351 5.7174,79.98351l12.21399,98.43511z" fill="url(#color-3)" stroke="#000000" stroke-width="0" stroke-linecap="butt"/><path d="M334.80364,185.80886c0.1888,7.57292 -5.67718,13.86203 -13.10204,14.04715c-7.42486,0.1851 -13.59694,-5.8039 -13.78574,-13.37681c-0.1888,-7.57292 5.67718,-13.86203 13.10204,-14.04715c7.42486,-0.1851 13.59694,5.8039 13.78574,13.37681z" fill="url(#color-4)" stroke="#000000" stroke-width="0" stroke-linecap="butt"/><path d="M374.54001,134.1343c-1.23043,28.52769 -26.60068,53.60821 -56.82521,52.30459c-30.22453,-1.30361 -53.85796,-28.49773 -52.62753,-57.0254c1.23043,-28.52768 26.72974,-50.59715 56.95427,-49.29352c30.22453,1.30361 53.72892,25.48666 52.49849,54.01433z" fill="url(#color-5)" stroke="#000000" stroke-width="0" stroke-linecap="butt"/><path d="M334.76468,132.60086c0.06752,2.708 -6.52812,5.06906 -14.73176,5.27358c-8.20365,0.20452 -14.90873,-1.82495 -14.97625,-4.53295c-0.06752,-2.708 6.52812,-5.06906 14.73176,-5.27358c8.20365,-0.20452 14.90873,1.82495 14.97625,4.53295z" fill-opacity="0.18431" fill="#000000" stroke="none" stroke-width="0" stroke-linecap="butt"/><path d="M275.24849,149.9196c0.51602,-0.10335 2.96886,-0.0248 1.73598,1.35318c-0.27156,0.30352 -1.69414,0.20457 -1.96021,-0.02038c-0.40883,-0.34566 0.72398,-1.11427 0.41508,-1.55153c-0.19233,-0.27225 -0.57114,0.71645 -0.84772,0.53043c-0.27658,-0.18604 0.11441,-0.65678 0.17162,-0.98516z" fill="none" stroke="#000000" stroke-width="2.5" stroke-linecap="round"/><path d="M286.14706,150.98678c-2.67459,-0.79761 1.15478,-1.93191 1.41202,-0.82975c0.45888,1.96609 -4.4109,-0.66171 -0.19072,-0.76692" fill="none" stroke="#000000" stroke-width="2.5" stroke-linecap="round"/><path d="M280.96988,155.49264c4.48885,-0.78896 -0.18565,3.31054 -0.90122,1.90406c-0.31035,-0.61001 1.12902,-1.28331 0.80778,-1.88764z" fill="none" stroke="#000000" stroke-width="2.5" stroke-linecap="round"/><path d="M352.5735,149.78036c0.57372,-0.22759 1.90106,-0.59676 1.85152,0.01845c-0.0025,0.03106 -3.75524,1.10886 -2.0101,-1.34298" fill="none" stroke="#000000" stroke-width="2.5" stroke-linecap="round"/><path d="M361.62473,149.85181c1.04875,2.08993 -2.08461,1.08088 -0.01078,-0.02148z" fill="none" stroke="#000000" stroke-width="2.5" stroke-linecap="round"/><path d="M357.71626,155.71898c-0.31366,0.14263 -2.98458,1.2037 -2.23034,-0.53113c0.28332,-0.65169 2.63053,-0.87957 2.35702,0.48215c-0.12252,0.60996 -2.46213,1.41666 -1.13519,-0.44764z" fill="none" stroke="#000000" stroke-width="2.5" stroke-linecap="round"/><path d="M332.22888,88.21181c2.66014,-14.36612 15.13256,-19.65842 27.85792,-11.82064c12.72536,7.83778 20.88485,25.83758 18.22472,40.20372c-2.66014,14.36612 -15.13257,19.65842 -27.85794,11.82064c-12.72536,-7.83778 -20.88484,-25.83758 -18.2247,-40.2037z" fill="url(#color-6)" stroke="#000000" stroke-width="0" stroke-linecap="butt"/><path d="M304.55223,92.0666c3.19183,14.44004 -3.8086,33.16104 -15.6359,41.81449c-11.8273,8.65344 -24.00271,3.96247 -27.19454,-10.4776c-3.19183,-14.44006 3.80861,-33.16105 15.63591,-41.81451c11.8273,-8.65344 24.0027,-3.96246 27.19453,10.47761z" fill="url(#color-7)" stroke="#000000" stroke-width="0" stroke-linecap="butt"/><path d="M268.80363,133.30924l-35.79689,-83.00453l70.71338,36.16181c0,0 -4.05795,18.8442 -9.20345,25.74721c-6.26973,8.41125 -25.71305,21.09553 -25.71305,21.09553z" fill="url(#color-8)" stroke="#000000" stroke-width="0" stroke-linecap="butt"/><path d="M333.62138,85.22428l67.04768,-39.5826l-29.08051,89.01168c0,0 -19.63727,-16.21519 -26.23133,-24.79993c-6.0068,-7.8202 -11.73584,-24.62913 -11.73584,-24.62913z" fill="url(#color-9)" stroke="#000000" stroke-width="0" stroke-linecap="butt"/><path d="M308.06867,226.12469l29.46274,0.99711" fill="none" stroke-opacity="0.45098" stroke="#000000" stroke-width="2.5" stroke-linecap="round"/><path d="M336.36251,238.118l-29.41959,0.73345" fill="none" stroke-opacity="0.45098" stroke="#000000" stroke-width="2.5" stroke-linecap="round"/><path d="M305.76684,249.55921l34.3013,-1.72096" fill="none" stroke-opacity="0.45098" stroke="#000000" stroke-width="2.5" stroke-linecap="round"/><path d="M306.34286,261.08913l32.88072,-0.81973" fill="none" stroke-opacity="0.45098" stroke="#000000" stroke-width="2.5" stroke-linecap="round"/><path d="M309.53635,273.4196l28.54713,-1.00031" fill="none" stroke-opacity="0.45098" stroke="#000000" stroke-width="2.5" stroke-linecap="round"/><path d="M336.97212,285.72291l-25.9369,1.51244" fill="none" stroke-opacity="0.45098" stroke="#000000" stroke-width="2.5" stroke-linecap="round"/><path d="M333.82737,298.5l-19.88711,1.07301" fill="none" stroke-opacity="0.45098" stroke="#000000" stroke-width="2.5" stroke-linecap="round"/><path d="M315.05005,309.35796l18.16373,-0.74144" fill="none" stroke-opacity="0.45098" stroke="#000000" stroke-width="2.5" stroke-linecap="round"/><path d="M334.35229,319.55518l-18.15654,1.02987" fill="none" stroke-opacity="0.45098" stroke="#000000" stroke-width="2.5" stroke-linecap="round"/><path d="M337.83503,216.14718l-29.75117,-0.98992" fill="none" stroke-opacity="0.45098" stroke="#000000" stroke-width="2.5" stroke-linecap="round"/><path d="M334.9731,205.5401l-26.55689,-0.20375" fill="none" stroke-opacity="0.45098" stroke="#000000" stroke-width="2.5" stroke-linecap="round"/><path d="M343.12875,233.81025l-1.12335,-21.90611l29.72241,-0.16378l-1.26317,18.79092" fill="none" stroke-opacity="0.45098" stroke="#000000" stroke-width="2.5" stroke-linecap="round"/><path d="M356.4108,234.05633l0.78219,54.52716l0.3779,61.4638" fill="none" stroke-opacity="0.45098" stroke="#000000" stroke-width="2.5" stroke-linecap="round"/><path d="M297.21987,201.10283c0.14307,5.73886 -4.7769,10.51666 -10.98906,10.67153c-6.21216,0.15487 -11.3641,-4.37185 -11.50717,-10.11069c-0.14307,-5.73886 4.7769,-10.51666 10.98906,-10.67153c6.21216,-0.15487 11.3641,4.37185 11.50717,10.11069z" fill="url(#color-10)" stroke="#000000" stroke-width="0" stroke-linecap="butt"/><path d="M251.86154,187.54841z" fill="url(#color-11)" stroke="#000000" stroke-width="2.5" stroke-linecap="butt"/><path d="M345.3492,133.37661l-3.93938,-1.98565l9.22356,-1.55816" fill="none" stroke="#000000" stroke-width="2.5" stroke-linecap="round"/><path d="M343.37777,132.31437l10.27054,-0.39498" fill="none" stroke="#000000" stroke-width="2.5" stroke-linecap="round"/><path d="M286.56543,132.61934l9.17022,0.04923" fill="none" stroke="#000000" stroke-width="2.5" stroke-linecap="round"/><path d="M300.00187,180.00703l6.41424,-1.82695l16.08202,1.47449l13.68743,-2.63342l8.97555,0.60976" fill="none" stroke="#000000" stroke-width="2.5" stroke-linecap="round"/><path d="M277.51413,134.60121l-0.09804,4.06406l-2.34112,0.18979l-1.59805,-2.4772" fill="none" stroke="#000000" stroke-width="2.5" stroke-linecap="round"/><path d="M278.40044,141.93254l-0.74531,2.51077l-1.87469,0.02686l-1.26098,-0.76322" fill="none" stroke="#000000" stroke-width="2.5" stroke-linecap="round"/><path d="M289.70382,130.5494l9.16527,0.41387l-6.23708,6.74371" fill="none" stroke="#000000" stroke-width="2.5" stroke-linecap="round"/></g></g></svg>