<svg version="1.1" xmlns="http://www.w3.org/2000/svg" xmlns:xlink="http://www.w3.org/1999/xlink" width="162.38441" height="327.92068" viewBox="0,0,162.38441,327.92068"><defs><linearGradient x1="301.88968" y1="169.38313" x2="318.78887" y2="348.22769" gradientUnits="userSpaceOnUse" id="color-1"><stop offset="0" stop-color="#2982c1"/><stop offset="1" stop-color="#000000"/></linearGradient><linearGradient x1="380.43663" y1="145.64294" x2="341.04754" y2="143.09761" gradientUnits="userSpaceOnUse" id="color-2"><stop offset="0" stop-color="#a636f3"/><stop offset="1" stop-color="#581b7d"/></linearGradient><linearGradient x1="226.07022" y1="140.19828" x2="265.4593" y2="142.74359" gradientUnits="userSpaceOnUse" id="color-3"><stop offset="0" stop-color="#a636f3"/><stop offset="1" stop-color="#581b7d"/></linearGradient><radialGradient cx="269.82891" cy="94.54072" r="25.84387" gradientUnits="userSpaceOnUse" id="color-4"><stop offset="0" stop-color="#000000" stop-opacity="0.92549"/><stop offset="1" stop-color="#000000" stop-opacity="0"/></radialGradient><linearGradient x1="225.42553" y1="67.3391" x2="289.9373" y2="78.74074" gradientUnits="userSpaceOnUse" id="color-5"><stop offset="0" stop-color="#a636f3"/><stop offset="1" stop-color="#16031b"/></linearGradient><radialGradient cx="342.27895" cy="94.06607" r="25.35587" gradientUnits="userSpaceOnUse" id="color-6"><stop offset="0" stop-color="#000000" stop-opacity="0.92549"/><stop offset="1" stop-color="#000000" stop-opacity="0"/></radialGradient><linearGradient x1="388.68854" y1="75.32495" x2="323.24587" y2="78.32892" gradientUnits="userSpaceOnUse" id="color-7"><stop offset="0" stop-color="#a636f3"/><stop offset="1" stop-color="#16031b"/></linearGradient></defs><g transform="translate(-225.89349,-25.46157)"><g stroke-miterlimit="10"><path d="M275.00584,344.58906l-15.87143,-147.27579c0,0 3.65505,-25.69821 12.62333,-26.10344c8.90623,-0.40242 30.0541,-0.95905 48.49343,-1.79223c19.99962,-0.90368 28.57286,16.2629 28.57286,16.2629l14.88347,162.54719z" fill="url(#color-1)" stroke="#000000" stroke-width="2.5" stroke-linecap="butt"/><path d="M326.69252,181.16574c0.55226,8.51921 -8.7138,15.13803 -20.69632,14.78356c-11.98252,-0.35448 -22.14395,-7.54801 -22.69621,-16.06723c-0.55226,-8.51921 8.71378,-15.13803 20.6963,-14.78356c11.98252,0.35448 22.14396,7.54802 22.69622,16.06723z" fill="#f2f2f2" stroke="#000000" stroke-width="1.5" stroke-linecap="butt"/><path d="M321.06791,181.44597c0.41492,6.40064 -6.54684,11.37348 -15.54952,11.10716c-9.00269,-0.26633 -16.63715,-5.67096 -17.05208,-12.07161c-0.41492,-6.40064 6.54683,-11.37348 15.54951,-11.10716c9.00269,0.26633 16.63717,5.67097 17.05209,12.07161z" fill="#a636f3" stroke="#000000" stroke-width="2.5" stroke-linecap="butt"/><path d="M280.95178,243.99634l22.66922,-12.06784l20.74059,12.394l14.4177,-6.197" fill="none" stroke="#ffffff" stroke-width="1.5" stroke-linecap="round"/><path d="M281.39063,250.95328l22.66922,-12.06784l20.7406,12.394l14.4177,-6.197" fill="none" stroke="#ffffff" stroke-width="1.5" stroke-linecap="round"/><path d="M281.4725,257.58407l22.66922,-12.06784l20.7406,12.394l14.4177,-6.197" fill="none" stroke="#ffffff" stroke-width="1.5" stroke-linecap="round"/><g><path d="M307.41975,254.87974c0,0 1.85918,-1.91552 5.51894,-3.16833c2.4887,-0.85194 1.7076,-2.03917 0.67409,-2.83441c-1.63008,-1.25428 -9.45707,-9.48289 -9.47017,-10.47732c-0.01252,-0.9498 5.75077,-2.06267 6.77412,-2.36791c4.98974,-1.48837 18.17794,1.6131 23.33786,2.12026c1.74418,0.17145 5.97327,0.37044 6.78989,1.81186c1.11409,1.96647 -0.48751,9.22523 -0.8656,11.97092c-0.7347,5.33545 -4.16986,10.69137 -6.05744,16.02993c-2.06093,5.82884 -1.89139,11.32205 -5.9177,17.04117c-1.62331,2.30583 -2.73772,7.17107 -4.97101,8.96269c-9.23138,7.40564 -24.74213,8.87579 -34.14552,10.19752c-5.9307,0.83362 -17.15863,1.44801 -17.15863,1.44801l-7.43757,-0.53988l-0.22585,-5.24225l14.34565,-12.71277c0,0 5.97104,-2.09189 6.00745,-2.3393c0.00882,-0.06003 -4.04078,-0.06757 -4.40883,-0.03105c-2.66771,0.26477 -12.1323,-0.18102 -12.1323,-0.18102l3.44889,-11.28173c0,0 14.35402,-2.01704 16.3279,-2.29519c0.5245,-0.0739 4.41126,-0.29795 4.69063,-1.1173c0.23985,-0.70344 -4.87909,-1.92297 -5.50978,-2.04471c-4.91307,-0.94842 -10.72603,-9.30303 -10.72603,-9.30303c0,0 10.74465,-3.30249 12.79821,-3.59112c17.18208,-2.41499 5.34202,-5.23229 18.31274,-0.05509z" fill="#a636f3" stroke="#000000" stroke-width="2.5" stroke-linecap="round"/><path d="M306.38481,267.46737c4.35715,-0.41329 7.64731,0.04971 7.34878,1.03414c-0.29853,0.98444 -4.07271,2.11752 -8.42985,2.53081c-4.35715,0.41329 -7.64731,-0.04971 -7.34878,-1.03414c0.29853,-0.98444 4.07271,-2.11752 8.42985,-2.53081z" fill-opacity="0.23137" fill="#000000" stroke="none" stroke-width="0" stroke-linecap="butt"/><path d="M299.73759,282.23607c5.26147,-0.49907 9.30489,-0.17211 9.03122,0.73028c-0.27365,0.9024 -4.76075,2.03852 -10.02222,2.5376c-5.26147,0.49907 -9.30489,0.17211 -9.03122,-0.73028c0.27365,-0.9024 4.76075,-2.03852 10.02222,-2.5376z" fill-opacity="0.23137" fill="#000000" stroke="none" stroke-width="0" stroke-linecap="butt"/><path d="M322.30403,246.91409c1.15094,-0.10918 1.74113,0.9329 1.31822,2.32751c-0.42292,1.39461 -1.6988,2.61367 -2.84974,2.72284c-1.15094,0.10918 -1.74113,-0.9329 -1.31821,-2.32751c0.42292,-1.39461 1.69879,-2.61368 2.84974,-2.72284z" fill-opacity="0.23137" fill="#000000" stroke="none" stroke-width="0" stroke-linecap="butt"/><path d="M327.60206,262.87711c0,0 -1.22927,0.68674 -2.52836,1.23285c-1.00709,0.42335 -2.05614,0.7622 -2.60705,0.6311c-0.51301,-0.1221 -0.99289,-0.84559 -1.36782,-1.61196c-0.46884,-0.95836 -0.77353,-1.98374 -0.77353,-1.98374" fill="none" stroke-opacity="0.40392" stroke="#000000" stroke-width="2.5" stroke-linecap="round"/><path d="M320.10588,269.16553c0,0 -1.22926,0.68672 -2.52835,1.23284c-1.00709,0.42335 -2.05617,0.76221 -2.60708,0.63112c-0.51301,-0.1221 -0.99287,-0.8456 -1.3678,-1.61197c-0.46884,-0.95836 -0.77355,-1.98374 -0.77355,-1.98374" fill="none" stroke-opacity="0.40392" stroke="#000000" stroke-width="2.5" stroke-linecap="round"/><path d="M312.60971,275.45395c0,0 -1.22926,0.68672 -2.52835,1.23284c-1.00709,0.42335 -2.05616,0.76219 -2.60707,0.6311c-0.51301,-0.1221 -0.99288,-0.84559 -1.3678,-1.61196c-0.46884,-0.95836 -0.77354,-1.98374 -0.77354,-1.98374" fill="none" stroke-opacity="0.40392" stroke="#000000" stroke-width="2.5" stroke-linecap="round"/></g><g><path d="M285.4069,285.82849c13.88834,5.45039 2.29762,-0.88081 15.41409,12.92711c1.56766,1.65028 8.74917,11.55824 8.74917,11.55824c0,0 -9.66086,1.84434 -14.34481,-0.93955c-0.60127,-0.35737 -5.61325,-3.09354 -5.81158,-2.425c-0.23099,0.7787 2.91961,3.67325 3.3199,4.09488c1.50642,1.58677 12.46426,13.12166 12.46426,13.12166l-3.5162,10.44207c0,0 -8.23658,-6.34421 -10.33582,-8.40976c-0.28963,-0.28498 -3.70946,-3.12962 -3.7362,-3.08075c-0.11018,0.20139 3.73459,5.88977 3.73459,5.88977l4.85941,19.12754l-3.17601,3.56529l-6.58052,-4.85079c0,0 -9.12003,-8.33838 -13.64739,-13.10445c-7.17832,-7.55682 -19.42325,-19.51726 -22.99164,-31.2752c-0.86327,-2.84454 0.96763,-7.08522 0.91168,-9.86579c-0.13879,-6.89662 3.13267,-10.67982 4.71403,-16.27122c1.44833,-5.12109 1.6013,-11.34365 4.02024,-15.65116c1.24481,-2.2167 4.02794,-8.50069 6.08753,-9.11365c1.50966,-0.44931 5.18993,2.38563 6.75866,3.49133c4.64086,3.2711 17.53047,10.34919 20.89131,14.91821c0.68927,0.93706 4.91641,5.78371 4.36492,6.44966c-0.5774,0.69723 -11.86518,1.03466 -13.95437,0.77854c-1.32458,-0.16239 -2.65953,0.13133 -1.04568,2.48805c2.37324,3.46567 2.85042,6.13495 2.85042,6.13495z" fill="#a636f3" stroke="#000000" stroke-width="2.5" stroke-linecap="round"/><path d="M284.77961,303.2301c-0.30885,0.90947 -3.34756,-1.07713 -6.78711,-4.43718c-3.43956,-3.36005 -5.97749,-6.82117 -5.66864,-7.73064c0.30885,-0.90947 3.34755,1.07712 6.78711,4.43717c3.43956,3.36005 5.9775,6.82118 5.66864,7.73065z" fill-opacity="0.23137" fill="#000000" stroke="none" stroke-width="0" stroke-linecap="butt"/><path d="M283.31426,319.52578c-0.28312,0.83368 -3.87964,-1.77968 -8.03309,-5.8371c-4.15344,-4.05742 -7.29094,-8.02244 -7.00781,-8.85612c0.28312,-0.83368 3.87964,1.77968 8.03309,5.8371c4.15344,4.05742 7.29094,8.02245 7.00781,8.85612z" fill-opacity="0.23137" fill="#000000" stroke="none" stroke-width="0" stroke-linecap="butt"/><path d="M278.24247,273.6343c-0.43756,1.28841 -1.5288,1.61337 -2.43736,0.72581c-0.90856,-0.88756 -1.29041,-2.65154 -0.85285,-3.93995c0.43756,-1.28841 1.52881,-1.61336 2.43736,-0.7258c0.90856,0.88756 1.2904,2.65153 0.85285,3.93994z" fill-opacity="0.23137" fill="#000000" stroke="none" stroke-width="0" stroke-linecap="butt"/><path d="M270.95366,281.19723c0,0 -0.84095,0.51403 -1.78218,0.86491c-0.75268,0.28058 -1.56946,0.45684 -2.07168,0.18255c-0.53932,-0.29458 -1.23113,-1.2736 -1.83944,-2.28312c-0.78467,-1.30224 -1.43038,-2.65524 -1.43038,-2.65524" fill="none" stroke-opacity="0.40392" stroke="#000000" stroke-width="2.5" stroke-linecap="round"/><path d="M273.69481,290.94028c0,0 -0.84096,0.51402 -1.78219,0.8649c-0.75268,0.28058 -1.56945,0.45687 -2.07167,0.18257c-0.53932,-0.29458 -1.23115,-1.27363 -1.83946,-2.28315c-0.78467,-1.30224 -1.43036,-2.65521 -1.43036,-2.65521" fill="none" stroke-opacity="0.40392" stroke="#000000" stroke-width="2.5" stroke-linecap="round"/><path d="M276.43595,300.68333c0,0 -0.84096,0.51402 -1.78219,0.86491c-0.75268,0.28058 -1.56945,0.45686 -2.07167,0.18256c-0.53932,-0.29458 -1.23115,-1.27361 -1.83946,-2.28313c-0.78467,-1.30224 -1.43035,-2.65522 -1.43035,-2.65522" fill="none" stroke-opacity="0.40392" stroke="#000000" stroke-width="2.5" stroke-linecap="round"/></g><path d="M361.2982,114.28216c4.75406,0.72626 8.18747,-1.41755 12.61571,-2.20133c0.67443,-0.11938 4.45062,-1.55939 4.91007,-0.9209c0.35427,0.49231 -1.36346,3.57066 -1.58206,4.11218c-0.74429,1.84363 -6.58247,11.73455 -6.51062,12.51781c0.26495,2.88851 9.21539,-1.05559 10.51345,0.27791c1.189,1.22145 -1.84618,5.06604 -2.4054,5.93619c-1.58219,2.46181 -9.14459,15.1664 -9.17477,17.22192c-0.04803,3.27153 4.00739,7.20027 2.27792,11.41858c-0.84866,2.06997 -2.4653,-1.15847 -3.44182,-0.83522c-0.99456,0.32922 -0.93852,4.47976 -0.98586,5.35122c-0.19292,3.55183 -0.47554,7.52424 -1.38164,10.99851c-0.09333,0.35788 -0.07034,0.91092 -0.38855,1.03491c-0.7926,0.30884 -8.81146,-9.18858 -10.1256,-10.29585c-6.39724,-5.39018 -12.46158,-13.537 -13.87174,-22.87126c-2.13037,-14.10165 3.66012,-33.52104 19.1458,-31.15803z" fill="url(#color-2)" stroke="#000000" stroke-width="2.5" stroke-linecap="round"/><path d="M249.41194,112.19533c15.661,-0.35031 18.90401,19.65282 14.97644,33.363c-2.59976,9.07513 -9.66219,16.3737 -16.69996,20.89572c-1.44572,0.92894 -10.62025,9.31532 -11.36649,8.90704c-0.29961,-0.16391 -0.20563,-0.7094 -0.25213,-1.07631c-0.45141,-3.56198 -0.22043,-7.53773 0.04539,-11.08485c0.06521,-0.87031 0.65497,-4.9791 -0.28895,-5.43359c-0.92679,-0.44625 -2.94548,2.54728 -3.52068,0.3853c-1.17217,-4.40579 3.35517,-7.77993 3.72858,-11.03044c0.23463,-2.04232 -5.62976,-15.61454 -6.88195,-18.25951c-0.44259,-0.93488 -2.95771,-5.13814 -1.62139,-6.1964c1.45888,-1.15532 9.82726,3.90791 10.46178,1.07753c0.17206,-0.7675 -4.34456,-11.32755 -4.84538,-13.25164c-0.14711,-0.56514 -1.45434,-3.83896 -1.03966,-4.28158c0.53781,-0.57404 4.09726,1.33999 4.75072,1.54518c4.29054,1.3472 7.41948,3.91507 12.22746,3.80671z" fill="url(#color-3)" stroke="#000000" stroke-width="2.5" stroke-linecap="round"/><path d="M359.16115,133.58884c-3.77407,28.3037 -31.28348,51.01745 -61.2707,47.01889c-29.98723,-3.99855 -51.09673,-33.19526 -47.32266,-61.49894c3.77407,-28.30369 31.14303,-48.0069 61.13026,-44.00833c29.98723,3.99855 51.2372,30.18471 47.46312,58.48839z" fill="#a636f3" stroke="#000000" stroke-width="2.5" stroke-linecap="butt"/><path d="M319.48567,121.09706c-0.16095,2.70406 -6.93209,4.50087 -15.12379,4.0133c-8.1917,-0.48757 -14.70191,-3.07489 -14.54094,-5.77895c0.16095,-2.70406 6.9321,-4.50087 15.1238,-4.01329c8.1917,0.48757 14.70191,3.07489 14.54095,5.77895z" fill-opacity="0.23137" fill="#000000" stroke="none" stroke-width="0" stroke-linecap="butt"/><path d="M284.47753,117.38767c-0.29537,2.21526 -2.50587,3.74826 -4.93725,3.42406c-2.43138,-0.32421 -4.16295,-2.38285 -3.86757,-4.5981c0.29538,-2.21527 1.90581,-0.44793 4.33719,-0.12373c2.43138,0.32421 4.763,-0.91749 4.46761,1.29778z" fill="#ffffff" stroke="#000000" stroke-width="2.5" stroke-linecap="butt"/><path d="M333.54864,120.56959c-0.29538,2.21527 -2.50587,3.74826 -4.93725,3.42406c-2.43138,-0.32421 -4.16294,-2.38285 -3.86756,-4.5981c0.29537,-2.21526 2.35584,0.7522 4.78723,1.0764c2.43138,0.32421 4.31297,-2.11761 4.01759,0.09765z" fill="#ffffff" stroke="#000000" stroke-width="2.5" stroke-linecap="butt"/><path d="M273.73046,115.18284c-12.66263,5.66445 -24.6745,1.01462 -26.82928,-10.3857c-2.15475,-11.40033 6.36355,-25.23408 19.02619,-30.89853c12.66263,-5.66445 24.6745,-1.01462 26.82927,10.3857c2.15475,11.40033 -6.36355,25.23407 -19.02618,30.89853z" fill="url(#color-4)" stroke="#000000" stroke-width="0" stroke-linecap="butt"/><path d="M283.75368,93.4857l-14.67681,11.43276l-13.43997,6.57966l-15.72536,-3.7757l-11.90647,-39.96452l4.0735,-38.06253l21.89081,41.84776l35.99609,7.03824z" fill="url(#color-5)" stroke="#000000" stroke-width="2.5" stroke-linecap="round"/><path d="M321.26635,81.19187c3.53604,-10.81995 15.81023,-13.82728 27.41516,-6.71706c11.60494,7.11022 18.14608,21.64549 14.61004,32.46544c-3.53604,10.81995 -15.81024,13.82728 -27.41517,6.71706c-11.60494,-7.11022 -18.14607,-21.64549 -14.61003,-32.46543z" fill="url(#color-6)" stroke="#000000" stroke-width="0" stroke-linecap="butt"/><path d="M323.23843,78.16728l36.60255,-2.34692l27.09467,-38.68231l-0.85912,38.27024l-16.95098,38.09974l-16.08051,1.7204l-12.48136,-8.25469l-13.08333,-13.22663z" fill="url(#color-7)" stroke="#000000" stroke-width="2.5" stroke-linecap="round"/><path d="M298.7927,87.44301c0,0 -1.25515,0.76391 -2.68441,1.42713c-1.108,0.51414 -2.32065,0.96776 -3.13433,0.95804c-0.7577,-0.00905 -1.81517,-0.50633 -2.75641,-1.05616c-1.17708,-0.6876 -2.1724,-1.45741 -2.1724,-1.45741" fill="none" stroke-opacity="0.40392" stroke="#000000" stroke-width="2.5" stroke-linecap="round"/><path d="M328.32433,90.29624c0,0 -1.40768,0.42122 -2.9583,0.70091c-1.20208,0.21682 -2.49009,0.34861 -3.27479,0.13318c-0.73071,-0.20061 -1.6278,-0.94943 -2.39916,-1.71968c-0.96461,-0.96324 -1.73258,-1.95998 -1.73258,-1.95998" fill="none" stroke-opacity="0.40392" stroke="#000000" stroke-width="2.5" stroke-linecap="round"/><path d="M313.53508,85.36474c0,0 -1.21255,0.82983 -2.60438,1.56842c-1.07898,0.57257 -2.26568,1.09029 -3.07871,1.12403c-0.75709,0.03142 -1.83961,-0.40869 -2.80888,-0.90748c-1.21211,-0.62376 -2.24711,-1.33933 -2.24711,-1.33933" fill="none" stroke-opacity="0.40392" stroke="#000000" stroke-width="2.5" stroke-linecap="round"/><path d="M355.77897,131.2997c0,0 -0.94443,0.45114 -1.98076,0.76407c-0.80339,0.24259 -1.66203,0.40212 -2.17873,0.20401c-0.48114,-0.18449 -1.06094,-0.91281 -1.55676,-1.66525c-0.62002,-0.94097 -1.10867,-1.91966 -1.10867,-1.91966" fill="none" stroke-opacity="0.40392" stroke="#000000" stroke-width="2.5" stroke-linecap="round"/><path d="M355.67674,139.81314c0,0 -0.94443,0.45114 -1.98076,0.76408c-0.80339,0.24259 -1.66203,0.40212 -2.17873,0.20401c-0.48114,-0.18449 -1.06094,-0.91281 -1.55676,-1.66525c-0.62002,-0.94097 -1.10867,-1.91966 -1.10867,-1.91966" fill="none" stroke-opacity="0.40392" stroke="#000000" stroke-width="2.5" stroke-linecap="round"/><path d="M353.30273,148.17979c0,0 -0.94443,0.45114 -1.98076,0.76408c-0.80339,0.24259 -1.66202,0.40212 -2.17872,0.20401c-0.48115,-0.18448 -1.06095,-0.9128 -1.55677,-1.66524c-0.62002,-0.94097 -1.10867,-1.91966 -1.10867,-1.91966" fill="none" stroke-opacity="0.40392" stroke="#000000" stroke-width="2.5" stroke-linecap="round"/><path d="M260.56139,121.15599c0,0 -0.61054,0.90766 -1.34651,1.761c-0.58853,0.68238 -1.25724,1.33001 -1.75814,1.45105c-0.5379,0.12996 -1.36886,-0.13875 -2.13435,-0.48272c-0.98744,-0.4437 -1.86595,-1.01265 -1.86595,-1.01265" fill="none" stroke-opacity="0.40392" stroke="#000000" stroke-width="2.5" stroke-linecap="round"/><path d="M261.32754,127.09334c0,0 -0.61054,0.90766 -1.34651,1.76099c-0.58853,0.68238 -1.25724,1.33001 -1.75815,1.45105c-0.5379,0.12996 -1.36886,-0.13875 -2.13434,-0.48272c-0.98744,-0.44371 -1.86595,-1.01266 -1.86595,-1.01266" fill="none" stroke-opacity="0.40392" stroke="#000000" stroke-width="2.5" stroke-linecap="round"/><path d="M261.32694,134.03402c0,0 -0.61054,0.90766 -1.34651,1.76099c-0.58853,0.68238 -1.25724,1.33001 -1.75815,1.45105c-0.5379,0.12996 -1.36886,-0.13875 -2.13434,-0.48272c-0.98744,-0.44371 -1.86595,-1.01266 -1.86595,-1.01266" fill="none" stroke-opacity="0.40392" stroke="#000000" stroke-width="2.5" stroke-linecap="round"/><path d="M297.21425,148.21348l3.1763,5.37307" fill="none" stroke="#000000" stroke-width="2.5" stroke-linecap="round"/><path d="M310.5479,149.07511l-5.05638,5.54576" fill="none" stroke="#000000" stroke-width="2.5" stroke-linecap="round"/><path d="M340.91169,153.30433l2.82335,1.0498l-23.88032,16.0931l-18.49131,-4.66433l-13.81115,3.44431l-24.33197,-17.18475l4.08665,-0.60327" fill="none" stroke="#000000" stroke-width="2.5" stroke-linecap="round"/><path d="M241.04974,46.79283c0,0 24.82859,-4.12766 46.53494,-3.01817c22.99968,1.17561 87.80782,9.88498 87.80782,9.88498" fill="none" stroke="#000000" stroke-width="2.5" stroke-linecap="round"/><path d="M371.71992,58.34721c0,0 -45.59365,-0.31409 -67.2958,-1.44985c-20.41295,-1.06829 -59.28646,-5.17468 -59.28646,-5.17468" fill="none" stroke="#000000" stroke-width="2.5" stroke-linecap="round"/><path d="M369.06318,63.35963c0,0 -38.09993,2.73918 -58.97422,1.74592c-19.61811,-0.93349 -62.737,-7.53727 -62.737,-7.53727" fill="none" stroke="#000000" stroke-width="2.5" stroke-linecap="round"/></g></g></svg>