<svg version="1.1" xmlns="http://www.w3.org/2000/svg" xmlns:xlink="http://www.w3.org/1999/xlink" width="188.87427" height="282.4045" viewBox="0,0,188.87427,282.4045"><defs><linearGradient x1="235.35804" y1="117.8539" x2="285.68798" y2="119.47036" gradientUnits="userSpaceOnUse" id="color-1"><stop offset="0" stop-color="#ffe23b"/><stop offset="1" stop-color="#631917"/></linearGradient><linearGradient x1="233.0575" y1="127.04268" x2="281.00688" y2="128.58268" gradientUnits="userSpaceOnUse" id="color-2"><stop offset="0" stop-color="#ffe23b"/><stop offset="1" stop-color="#631917"/></linearGradient><linearGradient x1="364.6391" y1="124.22101" x2="414.96905" y2="125.83747" gradientUnits="userSpaceOnUse" id="color-3"><stop offset="0" stop-color="#3c0000"/><stop offset="1" stop-color="#ffe23b"/></linearGradient><linearGradient x1="322.48266" y1="181.07604" x2="316.74202" y2="359.81624" gradientUnits="userSpaceOnUse" id="color-4"><stop offset="0" stop-color="#fbc74c"/><stop offset="1" stop-color="#fa954b"/></linearGradient><linearGradient x1="365.83075" y1="133.56093" x2="413.78013" y2="135.10093" gradientUnits="userSpaceOnUse" id="color-5"><stop offset="0" stop-color="#3c0000"/><stop offset="1" stop-color="#ffe23b"/></linearGradient><linearGradient x1="362.64095" y1="146.51824" x2="418.88323" y2="148.32459" gradientUnits="userSpaceOnUse" id="color-6"><stop offset="0" stop-color="#3c0000"/><stop offset="1" stop-color="#ffe23b"/></linearGradient><linearGradient x1="230.00895" y1="140.04352" x2="286.25124" y2="141.84987" gradientUnits="userSpaceOnUse" id="color-7"><stop offset="0" stop-color="#ffe23b"/><stop offset="1" stop-color="#631917"/></linearGradient><linearGradient x1="342.19075" y1="187.3482" x2="382.73277" y2="188.6503" gradientUnits="userSpaceOnUse" id="color-8"><stop offset="0" stop-color="#3c0000"/><stop offset="1" stop-color="#ffe23b"/></linearGradient><linearGradient x1="322.24899" y1="176.08952" x2="321.18619" y2="209.18094" gradientUnits="userSpaceOnUse" id="color-9"><stop offset="0" stop-color="#fbc74c"/><stop offset="1" stop-color="#fa8c4b"/></linearGradient><linearGradient x1="262.84263" y1="180.00067" x2="303.38466" y2="181.30277" gradientUnits="userSpaceOnUse" id="color-10"><stop offset="0" stop-color="#ffe23b"/><stop offset="1" stop-color="#631917"/></linearGradient><linearGradient x1="327.19978" y1="87.14613" x2="323.85" y2="191.44456" gradientUnits="userSpaceOnUse" id="color-11"><stop offset="0" stop-color="#ceb037"/><stop offset="1" stop-color="#ffec7f"/></linearGradient><linearGradient x1="346.81164" y1="79.09357" x2="345.72783" y2="112.83885" gradientUnits="userSpaceOnUse" id="color-12"><stop offset="0" stop-color="#d0b23a"/><stop offset="1" stop-color="#dabf49"/></linearGradient><linearGradient x1="347.19136" y1="212.64284" x2="344.23776" y2="229.01944" gradientUnits="userSpaceOnUse" id="color-13"><stop offset="0" stop-color="#ffde00"/><stop offset="1" stop-color="#ff9500"/></linearGradient><linearGradient x1="347.19136" y1="212.64284" x2="344.23776" y2="229.01944" gradientUnits="userSpaceOnUse" id="color-14"><stop offset="0" stop-color="#000000" stop-opacity="0.22745"/><stop offset="1" stop-color="#000000" stop-opacity="0.58824"/></linearGradient><linearGradient x1="353.23711" y1="218.34706" x2="350.28351" y2="234.72365" gradientUnits="userSpaceOnUse" id="color-15"><stop offset="0" stop-color="#ffce4e"/><stop offset="1" stop-color="#ff824f"/></linearGradient><linearGradient x1="353.23711" y1="218.34706" x2="350.28351" y2="234.72365" gradientUnits="userSpaceOnUse" id="color-16"><stop offset="0" stop-color="#000000" stop-opacity="0.22745"/><stop offset="1" stop-color="#000000" stop-opacity="0.58824"/></linearGradient></defs><g transform="translate(-229.52204,-79.07567)"><g stroke-miterlimit="10"><path d="M273.95475,134.35985c0,0 -15.43878,-7.04662 -21.59602,-12.17778c-6.52384,-5.43666 -16.51089,-19.57876 -16.51089,-19.57876c0,0 7.95196,6.70044 13.78632,7.1346c9.38704,0.69853 36.36685,-0.01405 36.36685,-0.01405z" fill="url(#color-1)" stroke="#000000" stroke-width="0" stroke-linecap="butt"/><path d="M264.01075,147.17191c0,0 -13.55001,-10.21802 -18.45218,-16.5591c-5.19404,-6.71861 -11.88713,-22.68553 -11.88713,-22.68553c0,0 6.31513,8.26127 11.91761,9.94663c9.01397,2.71162 35.50967,7.84932 35.50967,7.84932z" fill="url(#color-2)" stroke="#000000" stroke-width="0" stroke-linecap="butt"/><path d="M364.95213,114.4745c0,0 26.87848,2.44236 36.291,2.34762c5.8502,-0.05888 14.21572,-6.23525 14.21572,-6.23525c0,0 -10.87394,13.4721 -17.7332,18.47894c-6.47382,4.72549 -22.33294,10.76691 -22.33294,10.76691z" fill="url(#color-3)" stroke="#000000" stroke-width="0" stroke-linecap="butt"/><path d="M267.29476,354.58763l2.48449,-147.27193c0,0 7.80418,-25.46081 18.15025,-25.53396c10.2745,-0.07264 34.61525,0.1522 55.88741,0.0018c23.07216,-0.16313 29.38839,26.93195 29.38839,26.93195l-4.65608,152.76468z" fill="url(#color-4)" stroke="#000000" stroke-width="0" stroke-linecap="butt"/><path d="M365.92259,130.70149c0,0 26.77077,-3.42693 35.94017,-5.55455c5.69909,-1.32239 12.53132,-9.1614 12.53132,-9.1614c0,0 -7.70386,15.50453 -13.31832,21.876c-5.29897,6.01344 -19.47672,15.34093 -19.47672,15.34093z" fill="url(#color-5)" stroke="#000000" stroke-width="0" stroke-linecap="butt"/><path d="M372.67329,128.45955c0,0 20.91016,22.46029 28.9534,29.52103c4.99915,4.3885 16.76962,5.50447 16.76962,5.50447c0,0 -19.42988,3.15965 -29.03746,2.19598c-9.0677,-0.90953 -27.08205,-7.82494 -27.08205,-7.82494z" fill="url(#color-6)" stroke="#000000" stroke-width="0" stroke-linecap="butt"/><path d="M285.8871,153.1877c0,0 -18.42099,5.74521 -27.52836,6.07101c-9.64961,0.34518 -28.8367,-4.05474 -28.8367,-4.05474c0,0 11.81782,-0.35838 17.08828,-4.41704c8.47974,-6.53007 30.78804,-27.60229 30.78804,-27.60229z" fill="url(#color-7)" stroke="#000000" stroke-width="0" stroke-linecap="butt"/><path d="M370.93098,160.76664c0,0 8.55519,17.29591 10.30118,26.24029c1.84993,9.47691 0.50461,29.11599 0.50461,29.11599c0,0 -2.20204,-11.61639 -7.03495,-16.18731c-7.77578,-7.35425 -32.07731,-26.09283 -32.07731,-26.09283z" fill="url(#color-8)" stroke="#000000" stroke-width="0" stroke-linecap="butt"/><path d="M296.24901,178.85676c10.8072,-3.79179 23.10793,-2.61682 34.53801,-2.24972c4.64333,0.14913 10.55499,-0.57865 14.82731,1.28754c3.32373,1.45184 9.40057,1.63311 11.78689,4.2687c2.49387,2.75438 -2.09113,7.57544 -3.99025,9.15334c-6.41318,5.32845 -18.57504,16.31649 -26.79077,17.83949c-9.41948,1.74615 -23.10279,-12.99033 -30.45608,-18.40267c-1.3496,-0.99336 -9.91562,-5.23098 -10.28079,-6.06073c-0.69954,-1.58944 8.00865,-5.74993 9.56993,-6.21523z" fill="url(#color-9)" stroke="#000000" stroke-width="0" stroke-linecap="round"/><path d="M303.81842,167.79736c0,0 -25.45386,17.14058 -33.68554,23.98071c-5.11626,4.25138 -8.05917,15.70253 -8.05917,15.70253c0,0 -0.08234,-19.68494 2.37189,-29.02362c2.31634,-8.81391 11.96374,-25.52521 11.96374,-25.52521z" fill="url(#color-10)" stroke="#000000" stroke-width="0" stroke-linecap="butt"/><path d="M380.32116,139.58213c-0.89891,27.98848 -25.97559,52.84187 -56.21264,51.87074c-30.23705,-0.97113 -54.18432,-27.39905 -53.2854,-55.38751c0.89891,-27.98847 26.13961,-49.89035 56.37666,-48.91922c30.23705,0.97113 54.02031,24.44753 53.12139,52.436z" fill="url(#color-11)" stroke="#000000" stroke-width="0" stroke-linecap="butt"/><path d="M341.59954,136.16514c-0.08696,2.70744 -6.80645,4.68871 -15.00841,4.42529c-8.20197,-0.26342 -14.78047,-2.67179 -14.69352,-5.37923c0.08696,-2.70744 6.80645,-4.68871 15.00841,-4.42529c8.20197,0.26342 14.78047,2.67179 14.69352,5.37923z" fill-opacity="0.18431" fill="#ff0505" stroke="none" stroke-width="0" stroke-linecap="butt"/><path d="M304.75665,132.17742c-0.09356,2.91302 -2.25442,1.57223 -4.70606,1.49349c-2.45164,-0.07874 -4.26566,1.13439 -4.1721,-1.77864c0.09356,-2.91304 2.15685,-5.21069 4.60848,-5.13195c2.45164,0.07874 4.36324,2.50405 4.26968,5.41709z" fill="#ffffff" stroke="#000000" stroke-width="2.5" stroke-linecap="butt"/><path d="M320.71862,90.31072c6.11571,0.19642 11.58612,-0.30431 16.68796,-3.98972c2.4052,-1.73743 5.53942,-6.90057 8.60968,-7.23381c2.52804,-0.27439 2.77989,4.43718 4.93924,5.19547c4.01449,1.40976 10.89963,-0.87214 14.83066,-1.90325c1.19121,-0.31245 4.97502,-1.99718 6.08938,-1.35185c1.95216,1.13053 -1.70122,6.81291 -2.49989,7.96605c-2.8781,4.15543 -3.84971,13.02265 -11.86025,18.30961c-5.05128,3.33385 -17.47822,3.85283 -20.51774,5.25524" fill="url(#color-12)" stroke="#000000" stroke-width="0" stroke-linecap="round"/><path d="M324.71278,191.47239l0.17202,18.03706l-5.34369,119.59467l-0.51662,27.78202" fill="none" stroke-opacity="0.61176" stroke="#000000" stroke-width="2.5" stroke-linecap="round"/><path d="M350.09268,138.16893l10.24084,-1.12889" fill="none" stroke="#000000" stroke-width="2.5" stroke-linecap="round"/><path d="M368.08151,137.09843l-16.34156,1.405" fill="none" stroke="#000000" stroke-width="2.5" stroke-linecap="round"/><path d="M358.87066,136.80261l4.36668,-2.43288" fill="none" stroke="#000000" stroke-width="2.5" stroke-linecap="round"/><path d="M293.53099,134.91851l-8.04351,-3.26031" fill="none" stroke="#000000" stroke-width="2.5" stroke-linecap="round"/><path d="M287.68458,130.01335l3.42041,0.32428" fill="none" stroke="#000000" stroke-width="2.5" stroke-linecap="round"/><path d="M306.42462,134.04605l-7.94532,7.03534" fill="none" stroke="#000000" stroke-width="2.5" stroke-linecap="round"/><path d="M351.88536,140.65237l-6.90368,-5.36797" fill="none" stroke="#000000" stroke-width="2.5" stroke-linecap="round"/><path d="M356.36304,141.43946l4.93362,-0.05598" fill="none" stroke="#000000" stroke-width="2.5" stroke-linecap="round"/><path d="M290.22846,137.59999l2.96449,1.16734l-1.86265,9.45423" fill="none" stroke="#000000" stroke-width="2.5" stroke-linecap="round"/><path d="M306.30163,113.37179c0,0 -3.89086,8.61589 -6.6908,9.77259c-3.10772,1.28385 -11.12864,-2.4111 -11.12864,-2.4111" fill="none" stroke="#000000" stroke-width="2.5" stroke-linecap="round"/><path d="M357.00284,134.48028c-0.10083,3.13946 -2.25852,1.69996 -4.71016,1.62122c-2.45164,-0.07874 -4.26883,1.23311 -4.168,-1.90636c0.10083,-3.13947 2.17002,-5.62069 4.62165,-5.54195c2.45164,0.07874 4.35734,2.68762 4.25651,5.82709z" fill="#ffffff" stroke="#000000" stroke-width="2.5" stroke-linecap="butt"/><path d="M361.29843,123.50079c0,0 -8.24148,3.17265 -11.26042,1.69202c-2.71994,-1.33398 -6.04992,-10.18178 -6.04992,-10.18178" fill="none" stroke="#000000" stroke-width="2.5" stroke-linecap="round"/><path d="M315.60681,132.93169l2.68055,-3.34474" fill="none" stroke="#000000" stroke-width="2.5" stroke-linecap="round"/><path d="M320.90005,135.03154l0.15823,-4.92674" fill="none" stroke="#000000" stroke-width="2.5" stroke-linecap="round"/><path d="M325.80615,135.83239l1.49163,-6.3849" fill="none" stroke="#000000" stroke-width="2.5" stroke-linecap="round"/><path d="M332.25984,135.18197l-0.05598,-4.93362" fill="none" stroke="#000000" stroke-width="2.5" stroke-linecap="round"/><path d="M336.70908,130.17861l1.82466,3.27501" fill="none" stroke="#000000" stroke-width="2.5" stroke-linecap="round"/><path d="M367.73179,135.53234c-0.06302,1.96206 -2.44314,3.47782 -5.31615,3.38554c-2.87301,-0.09227 -5.15096,-1.75764 -5.08795,-3.71969c0.06302,-1.96206 2.44314,-3.47782 5.31615,-3.38554c2.87301,0.09227 5.15096,1.75764 5.08795,3.71969z" fill="#ffffff" stroke="#000000" stroke-width="2.5" stroke-linecap="butt"/><path d="M295.01694,133.16069c-0.07453,2.32044 -2.64307,4.12098 -5.73699,4.02161c-3.09392,-0.09937 -5.54164,-2.06101 -5.46711,-4.38146c0.07453,-2.32044 2.64307,-4.12098 5.73699,-4.02161c3.09392,0.09937 5.54164,2.06101 5.46711,4.38146z" fill="#ffffff" stroke="#000000" stroke-width="2.5" stroke-linecap="butt"/><path d="M351.94828,181.7212l1.6774,-4.7725l-2.26641,7.29379l0.03964,-9.14345" fill="none" stroke="#000000" stroke-width="2.5" stroke-linecap="round"/><path d="M349.79485,177.58772l-0.98133,6.82703l0.57161,-9.88843" fill="none" stroke="#000000" stroke-width="2.5" stroke-linecap="round"/><path d="M346.95572,186.89528l0.2771,-8.62778l0.32007,5.85274" fill="none" stroke="#000000" stroke-width="2.5" stroke-linecap="round"/><path d="M346.46339,178.4968l0.58902,-2.52128" fill="none" stroke="#000000" stroke-width="2.5" stroke-linecap="round"/><path d="M343.65575,178.91466l1.10469,-2.75874l-0.10595,3.29886" fill="none" stroke="#000000" stroke-width="2.5" stroke-linecap="round"/><path d="M340.61065,178.81687l1.05579,-1.2362l-0.0815,2.53758" fill="none" stroke="#000000" stroke-width="2.5" stroke-linecap="round"/><path d="M336.93579,182.50914l1.71,-5.78754l0.35378,12.71237" fill="none" stroke="#000000" stroke-width="2.5" stroke-linecap="round"/><path d="M335.07688,177.11502l1.55515,-0.96614l-0.60532,3.0288z" fill="none" stroke="#000000" stroke-width="2.5" stroke-linecap="round"/><path d="M334.4324,151.68191l-0.13373,15.10277l-0.03535,-9.8383" fill="none" stroke="#000000" stroke-width="2.5" stroke-linecap="round"/><path d="M336.41573,166.50135l-1.5053,3.11359l-0.98526,-2.13961" fill="none" stroke="#000000" stroke-width="2.5" stroke-linecap="round"/><path d="M337.18529,164.4181l0.54412,4.93605l1.55039,-4.51746l1.24605,4.95859l1.2998,4.13409l1.51094,-6.32674l-0.25699,8.0017" fill="none" stroke="#000000" stroke-width="2.5" stroke-linecap="round"/><path d="M334.50977,138.33397l-0.12399,3.86062" fill="none" stroke="#000000" stroke-width="2.5" stroke-linecap="round"/><path d="M329.87138,162.42656l0.14807,6.32864" fill="none" stroke="#000000" stroke-width="2.5" stroke-linecap="round"/><path d="M348.75171,166.9592l-0.37833,6.69005l-1.4287,-6.80975l-0.26079,-2.81899" fill="none" stroke="#000000" stroke-width="2.5" stroke-linecap="round"/><path d="M351.11117,168.37863l-1.25732,-4.60764" fill="none" stroke="#000000" stroke-width="2.5" stroke-linecap="round"/><path d="M355.02815,166.74779l2.36658,2.88663" fill="none" stroke="#000000" stroke-width="2.5" stroke-linecap="round"/><path d="M358.18683,166.84925l0.87254,5.64926l-0.54259,5.95513l-0.7921,2.78518l-0.87254,-5.64926l-2.2636,4.84587l-0.56666,-4.23412" fill="none" stroke="#000000" stroke-width="2.5" stroke-linecap="round"/><path d="M361.38086,176.78899l0.15781,-4.91351l0.24952,3.16995" fill="none" stroke="#000000" stroke-width="2.5" stroke-linecap="round"/><path d="M302.30109,136.634l-10.14729,-1.7837l13.08972,2.58865l-10.58552,2.44757l4.84442,-5.45557" fill="none" stroke="#000000" stroke-width="2.5" stroke-linecap="round"/><path d="M295.21194,136.75243l-1.64057,7.32518" fill="none" stroke="#000000" stroke-width="2.5" stroke-linecap="round"/><path d="M290.40141,144.32713l1.05442,10.92501" fill="none" stroke="#000000" stroke-width="2.5" stroke-linecap="round"/><path d="M292.50051,177.41929l-0.47649,-7.04184l-0.4893,-17.58207" fill="none" stroke="#000000" stroke-width="2.5" stroke-linecap="round"/><path d="M293.47451,179.90986l-1.45048,-9.53241" fill="none" stroke="#000000" stroke-width="2.5" stroke-linecap="round"/><path d="M328.43013,176.20968c-0.1034,3.21932 -1.61073,5.78337 -3.36672,5.72698c-1.75599,-0.0564 -3.09569,-2.71189 -2.99229,-5.93121c0.1034,-3.21932 1.61073,-5.78337 3.36672,-5.72698c1.75599,0.0564 3.09569,2.71189 2.99229,5.93121z" fill="#ffffff" stroke="#000000" stroke-width="2.5" stroke-linecap="butt"/><path d="M329.7939,171.90826l-0.34162,5.54695" fill="none" stroke="#000000" stroke-width="2.5" stroke-linecap="round"/><path d="M331.7063,173.4409l0.53782,3.61358" fill="none" stroke="#000000" stroke-width="2.5" stroke-linecap="round"/><path d="M333.88164,171.87608l0.32731,5.07803" fill="none" stroke="#000000" stroke-width="2.5" stroke-linecap="round"/><path d="M336.21576,175.54735l0.17832,-5.5522" fill="none" stroke="#000000" stroke-width="2.5" stroke-linecap="round"/><path d="M337.76342,168.07751l2.42123,8.18548l-0.2771,8.62778l-1.0569,-6.63847" fill="none" stroke="#000000" stroke-width="2.5" stroke-linecap="round"/><path d="M345.62279,167.67606l1.28089,5.926" fill="none" stroke="#000000" stroke-width="2.5" stroke-linecap="round"/><path d="M349.86334,167.97572l1.63371,5.11999" fill="none" stroke="#000000" stroke-width="2.5" stroke-linecap="round"/><path d="M352.79225,168.39673l0.60147,6.72152" fill="none" stroke="#000000" stroke-width="2.5" stroke-linecap="round"/><path d="M355.59076,177.96777l-1.77079,-5.94173" fill="none" stroke="#000000" stroke-width="2.5" stroke-linecap="round"/><g stroke-width="2.5" stroke-linecap="butt"><path d="M337.45059,216.13169c0.18784,-1.09541 0.33191,-1.5045 0.7383,-2.09684c0.04674,-0.06813 0.09435,-0.13476 0.14282,-0.1999c0.00864,-0.01207 0.0173,-0.02397 0.02601,-0.03568c0.16672,-0.22442 0.34597,-0.42898 0.53547,-0.61407c0.55233,-0.54782 1.18854,-0.93863 1.89649,-1.16308c0.70129,-0.22234 1.05887,-0.32066 2.07731,-0.1554c0.11324,0.01578 0.22569,0.0357 0.33711,0.0597c0.8396,0.16105 1.13654,0.32371 1.55858,0.66069c0.84064,0.56865 1.49085,1.44459 1.75987,2.59551l0.11896,0.50893l0.28926,-0.43531c0.65413,-0.98442 1.56938,-1.57803 2.55571,-1.81718c0.51317,-0.16831 0.84823,-0.21699 1.6912,-0.07458c0.11278,0.01643 0.22511,0.03705 0.33672,0.06183c1.01202,0.20093 1.3127,0.41799 1.89213,0.87131c0.58492,0.45763 1.04451,1.04607 1.37066,1.7523c0.11291,0.23964 0.20941,0.49394 0.28724,0.76247c0.00406,0.01401 0.00803,0.0282 0.01191,0.04253c0.02266,0.07796 0.04399,0.15703 0.06399,0.23719c0.17385,0.69699 0.16592,1.13064 -0.04075,2.22265c-0.00427,0.02252 -0.00859,0.04498 -0.01298,0.06736c-0.13785,0.85451 -0.39138,1.69897 -0.72547,2.29062c-0.92446,1.63707 -2.32816,2.75905 -5.396,4.31303c-2.01194,1.01915 -4.37607,2.68377 -4.56509,2.94336c-0.10263,0.14091 -0.23581,0.1169 -0.28274,-0.05099c-0.08644,-0.30927 -1.72008,-2.69491 -3.24922,-4.35271c-2.33167,-2.5278 -3.25495,-4.06949 -3.54926,-5.92636c-0.10637,-0.6711 -0.04892,-1.55093 0.12045,-2.39974c0.0037,-0.0225 0.00749,-0.04505 0.01137,-0.06764z" fill="url(#color-13)" stroke="url(#color-14)"/><path d="M343.49636,221.83591c0.18784,-1.09541 0.3319,-1.50451 0.73828,-2.09686c0.04674,-0.06813 0.09436,-0.13475 0.14282,-0.19989c0.00864,-0.01207 0.0173,-0.02396 0.02601,-0.03567c0.16672,-0.22442 0.34598,-0.429 0.53549,-0.61408c0.55233,-0.54782 1.18853,-0.93862 1.89648,-1.16309c0.70129,-0.22234 1.05887,-0.32066 2.0773,-0.1554c0.11324,0.01578 0.22571,0.03571 0.33712,0.05971c0.8396,0.16105 1.13655,0.32371 1.55859,0.66068c0.84064,0.56865 1.49085,1.4446 1.75986,2.59552l0.11896,0.50892l0.28926,-0.4353c0.65413,-0.98442 1.56938,-1.57803 2.55571,-1.81718c0.51317,-0.16831 0.84822,-0.21699 1.69119,-0.07458c0.11278,0.01643 0.22512,0.03705 0.33673,0.06182c1.01202,0.20093 1.3127,0.41799 1.89213,0.87132c0.58492,0.45763 1.0445,1.04606 1.37066,1.7523c0.11291,0.23964 0.20942,0.49394 0.28723,0.76249c0.00406,0.01401 0.00803,0.02819 0.01191,0.04252c0.02266,0.07796 0.04399,0.15703 0.06399,0.23718c0.17385,0.69699 0.16593,1.13065 -0.04075,2.22266c-0.00427,0.02252 -0.00858,0.04497 -0.01297,0.06735c-0.13784,0.85451 -0.39138,1.69897 -0.72547,2.29062c-0.92446,1.63707 -2.32816,2.75906 -5.396,4.31304c-2.01194,1.01915 -4.37607,2.68377 -4.5651,2.94336c-0.10263,0.14091 -0.23581,0.11689 -0.28274,-0.051c-0.08644,-0.30927 -1.72007,-2.69491 -3.24921,-4.35271c-2.33167,-2.5278 -3.25495,-4.06949 -3.54928,-5.92636c-0.10637,-0.6711 -0.04892,-1.55092 0.12045,-2.39974c0.0037,-0.0225 0.00749,-0.04505 0.01137,-0.06764z" fill="url(#color-15)" stroke="url(#color-16)"/></g></g></g></svg>