<svg version="1.1" xmlns="http://www.w3.org/2000/svg" xmlns:xlink="http://www.w3.org/1999/xlink" width="172.41519" height="312.61969" viewBox="0,0,172.41519,312.61969"><defs><linearGradient x1="315.96389" y1="162.44699" x2="319.91004" y2="341.23581" gradientUnits="userSpaceOnUse" id="color-1"><stop offset="0" stop-color="#383838"/><stop offset="1" stop-color="#494949"/></linearGradient><linearGradient x1="347.41587" y1="162.81421" x2="351.40554" y2="343.57463" gradientUnits="userSpaceOnUse" id="color-2"><stop offset="0" stop-color="#666666"/><stop offset="1" stop-color="#4b4b4b"/></linearGradient><linearGradient x1="285.59738" y1="162.92968" x2="289.58704" y2="343.69009" gradientUnits="userSpaceOnUse" id="color-3"><stop offset="0" stop-color="#666666"/><stop offset="1" stop-color="#4b4b4b"/></linearGradient><radialGradient cx="350.52719" cy="91.80477" r="25.0471" gradientUnits="userSpaceOnUse" id="color-4"><stop offset="0" stop-color="#000000" stop-opacity="0.92549"/><stop offset="1" stop-color="#000000" stop-opacity="0"/></radialGradient><radialGradient cx="279.62483" cy="97.3692" r="25.35587" gradientUnits="userSpaceOnUse" id="color-5"><stop offset="0" stop-color="#000000" stop-opacity="0.92549"/><stop offset="1" stop-color="#000000" stop-opacity="0"/></radialGradient><linearGradient x1="269.41936" y1="37.26333" x2="274.8351" y2="122.28983" gradientUnits="userSpaceOnUse" id="color-6"><stop offset="0" stop-color="#9c9c9c"/><stop offset="1" stop-color="#2c2c2c"/></linearGradient><linearGradient x1="356.07167" y1="36.52267" x2="358.01921" y2="124.76041" gradientUnits="userSpaceOnUse" id="color-7"><stop offset="0" stop-color="#9c9c9c"/><stop offset="1" stop-color="#2c2c2c"/></linearGradient><linearGradient x1="281.9626" y1="180.63334" x2="282.42132" y2="201.41696" gradientUnits="userSpaceOnUse" id="color-8"><stop offset="0" stop-color="#878787"/><stop offset="1" stop-color="#848484"/></linearGradient><linearGradient x1="120.91159" y1="89.41765" x2="120.93917" y2="90.66735" gradientUnits="userSpaceOnUse" id="color-9"><stop offset="0" stop-color="#878787"/><stop offset="1" stop-color="#848484"/></linearGradient></defs><g transform="translate(-227.14333,-32.85798)"><g stroke-miterlimit="10"><path d="M272.79462,338.63621l-5.37853,-147.19295c0,0 6.0561,-25.83814 15.85299,-26.4597c9.72912,-0.61725 32.79868,-1.6832 52.9417,-2.96117c21.84746,-1.38611 29.25333,25.33534 29.25333,25.33534l3.60978,152.79296z" fill="url(#color-1)" stroke="#000000" stroke-width="2.5" stroke-linecap="butt"/><path d="M328.49469,344.0803l7.5764,-98.9002c0,0 -8.25661,-80.84233 1.95377,-80.16379c9.41381,0.62561 14.20617,-2.67566 18.75305,-2.3735c4.57857,0.30427 14.20839,29.54845 14.20839,29.54845l2.25782,147.26183z" fill="url(#color-2)" stroke="#000000" stroke-width="2.5" stroke-linecap="butt"/><path d="M267.58789,340.53613l-4.24181,-147.21804c0,0 8.33014,-29.64058 12.89082,-30.14657c4.52912,-0.50248 9.46248,2.58412 18.83951,1.54377c10.1705,-1.12838 5.48883,79.99952 5.48883,79.99952l11.93266,98.46961z" fill="url(#color-3)" stroke="#000000" stroke-width="2.5" stroke-linecap="butt"/><path d="M331.06814,175.59036c0.16716,7.57344 -5.71677,13.84576 -13.14213,14.00965c-7.42536,0.16389 -13.5803,-5.84273 -13.74746,-13.41615c-0.16716,-7.57344 5.71677,-13.84576 13.14213,-14.00965c7.42536,-0.16389 13.5803,5.84273 13.74746,13.41615z" fill="#9c9c9c" stroke="#000000" stroke-width="2.5" stroke-linecap="butt"/><path d="M370.95201,124.02955c-1.31194,28.52405 -26.75375,53.53199 -56.97444,52.142c-30.22069,-1.38997 -53.77631,-28.65151 -52.46437,-57.17555c1.31194,-28.52404 26.87421,-50.52057 57.0949,-49.13058c30.22069,1.38997 53.65587,25.64008 52.34393,54.16413z" fill="#9c9c9c" stroke="#000000" stroke-width="2.5" stroke-linecap="butt"/><path d="M331.18123,122.38246c0.05977,2.70818 -6.54258,5.05039 -14.74677,5.23147c-8.2042,0.18108 -14.90346,-1.86754 -14.96323,-4.57572c-0.05977,-2.70818 6.54258,-5.05039 14.74677,-5.23147c8.2042,-0.18108 14.90346,1.86754 14.96323,4.57572z" fill-opacity="0.18431" fill="#000000" stroke="none" stroke-width="0" stroke-linecap="butt"/><path d="M330.91405,158.44664l-26.91513,0.59406" fill="none" stroke="#000000" stroke-width="2.5" stroke-linecap="round"/><path d="M271.6158,139.53107c0.51632,-0.10188 2.96892,-0.01632 1.73211,1.35814c-0.27243,0.30275 -1.69473,0.19972 -1.96015,-0.02598c-0.40784,-0.34682 0.72717,-1.1122 0.41951,-1.55034c-0.19155,-0.2728 -0.57318,0.71482 -0.84924,0.528c-0.27605,-0.18682 0.11629,-0.65645 0.17443,-0.98467z" fill="none" stroke="#000000" stroke-width="2.5" stroke-linecap="round"/><path d="M282.51129,140.62938c-2.6723,-0.80525 1.1603,-1.9286 1.41438,-0.82571c0.45326,1.96739 -4.40899,-0.6743 -0.18852,-0.76746" fill="none" stroke="#000000" stroke-width="2.5" stroke-linecap="round"/><path d="M277.32125,145.12043c4.49109,-0.77613 -0.19511,3.30999 -0.90665,1.90148c-0.30861,-0.61089 1.13269,-1.28009 0.81318,-1.88533z" fill="none" stroke="#000000" stroke-width="2.5" stroke-linecap="round"/><path d="M348.94088,139.61278c0.57436,-0.22595 1.90275,-0.59133 1.85146,0.02374c-0.00259,0.03105 -3.75839,1.09813 -2.00626,-1.34873" fill="none" stroke="#000000" stroke-width="2.5" stroke-linecap="round"/><path d="M357.99187,139.71008c1.04278,2.09292 -2.08769,1.07492 -0.01072,-0.02151z" fill="none" stroke="#000000" stroke-width="2.5" stroke-linecap="round"/><path d="M354.06665,145.56607c-0.31407,0.14173 -2.98801,1.19517 -2.22881,-0.5375c0.28519,-0.65087 2.63304,-0.87205 2.35563,0.48888c-0.12426,0.6096 -2.46617,1.40962 -1.13391,-0.45088z" fill="none" stroke="#000000" stroke-width="2.5" stroke-linecap="round"/><path d="M328.74321,77.53319c2.55057,-14.35682 14.37122,-19.60572 26.40217,-11.72374c12.03095,7.88198 19.71634,25.91009 17.16577,40.26691c-2.55057,14.35682 -14.37123,19.60572 -26.40219,11.72374c-12.03095,-7.88198 -19.71633,-25.91009 -17.16576,-40.26689z" fill="url(#color-4)" stroke="#000000" stroke-width="0" stroke-linecap="butt"/><path d="M301.08473,81.76204c3.15055,14.44911 -3.90334,33.15002 -15.75531,41.76964c-11.85197,8.61962 -24.01393,3.89386 -27.16449,-10.55526c-3.15055,-14.44913 3.90335,-33.15003 15.75532,-41.76966c11.85197,-8.61962 24.01392,-3.89385 27.16448,10.55527z" fill="url(#color-5)" stroke="#000000" stroke-width="0" stroke-linecap="butt"/><path d="M265.21844,122.90237l-35.55957,-83.10648l70.60976,36.36372c0,0 -4.11178,18.83253 -9.27698,25.72081c-6.29373,8.3933 -25.77322,21.02198 -25.77322,21.02198z" fill="url(#color-6)" stroke="#000000" stroke-width="2.5" stroke-linecap="butt"/><path d="M330.1733,75.00281l67.16051,-39.39086l-29.33474,88.92822c0,0 -19.59086,-16.27124 -26.16036,-24.87479c-5.98444,-7.83733 -11.66541,-24.66256 -11.66541,-24.66256z" fill="url(#color-7)" stroke="#000000" stroke-width="2.5" stroke-linecap="butt"/><path d="M294.15664,118.38081c0.06716,2.23386 -1.866,4.10449 -4.31778,4.17819c-2.4518,0.0737 -4.4938,-1.67746 -4.56096,-3.91131c-0.06716,-2.23386 1.866,-4.10449 4.31778,-4.17819c2.4518,-0.0737 4.49379,1.67746 4.56094,3.91132z" fill="#ffffff" stroke="#000000" stroke-width="2.5" stroke-linecap="butt"/><path d="M347.64097,116.84438c0.06716,2.23386 -1.86599,4.10449 -4.31778,4.17819c-2.4518,0.0737 -4.49379,-1.67746 -4.56094,-3.91131c-0.06716,-2.23386 1.86599,-4.10448 4.31778,-4.17818c2.4518,-0.0737 4.4938,1.67745 4.56095,3.9113z" fill="#ffffff" stroke="#000000" stroke-width="2.5" stroke-linecap="butt"/><path d="M295.29049,120.64231l-6.25633,6.72586" fill="none" stroke="#000000" stroke-width="2.5" stroke-linecap="round"/><path d="M277.9602,114.80303c0,0 7.65536,-6.31594 11.74936,-6.37552c4.01456,-0.05842 12.58099,6.02149 12.58099,6.02149" fill="none" stroke="#000000" stroke-width="2.5" stroke-linecap="round"/><path d="M304.21809,215.82963l29.45976,1.0813" fill="none" stroke="#000000" stroke-width="2.5" stroke-linecap="round"/><path d="M332.47754,227.90374l-29.42156,0.64938" fill="none" stroke="#000000" stroke-width="2.5" stroke-linecap="round"/><path d="M336.15538,237.63453l-34.30607,1.62295" fill="none" stroke="#000000" stroke-width="2.5" stroke-linecap="round"/><path d="M302.3924,250.78899l32.88293,-0.72578" fill="none" stroke="#000000" stroke-width="2.5" stroke-linecap="round"/><path d="M305.55064,263.12853l28.54987,-0.91873" fill="none" stroke="#000000" stroke-width="2.5" stroke-linecap="round"/><path d="M332.95112,275.51019l-25.94111,1.43832" fill="none" stroke="#000000" stroke-width="2.5" stroke-linecap="round"/><path d="M309.87979,289.29442l19.8901,-1.01618" fill="none" stroke="#000000" stroke-width="2.5" stroke-linecap="round"/><path d="M310.9616,299.08251l18.16578,-0.68953" fill="none" stroke="#000000" stroke-width="2.5" stroke-linecap="round"/><path d="M330.23464,309.33484l-18.15941,0.97799" fill="none" stroke="#000000" stroke-width="2.5" stroke-linecap="round"/><path d="M304.26461,204.86228l29.74822,1.07493" fill="none" stroke="#000000" stroke-width="2.5" stroke-linecap="round"/><path d="M304.62505,195.04236l26.55621,0.27962" fill="none" stroke="#000000" stroke-width="2.5" stroke-linecap="round"/><path d="M339.25607,223.61534l-1.06075,-21.90923l29.72276,-0.07885l-1.31686,18.78723" fill="none" stroke="#000000" stroke-width="2.5" stroke-linecap="round"/><path d="M352.53735,223.89937l0.62637,54.52918l0.20227,61.46463" fill="none" stroke="#000000" stroke-width="2.5" stroke-linecap="round"/><path d="M293.44083,190.77687c0.12667,5.73924 -4.80693,10.50297 -11.01951,10.64009c-6.21258,0.13712 -11.35156,-4.4043 -11.47823,-10.14353c-0.12667,-5.73924 4.80693,-10.50297 11.01951,-10.64009c6.21258,-0.13712 11.35156,4.4043 11.47823,10.14353z" fill="url(#color-8)" stroke="#000000" stroke-width="2.5" stroke-linecap="butt"/><path d="M248.12141,177.0929z" fill="url(#color-9)" stroke="#000000" stroke-width="2.5" stroke-linecap="butt"/></g></g></svg>