<svg version="1.1" xmlns="http://www.w3.org/2000/svg" xmlns:xlink="http://www.w3.org/1999/xlink" width="184.0434" height="292.83861" viewBox="0,0,184.0434,292.83861"><defs><linearGradient x1="318.14448" y1="108.33259" x2="318.34251" y2="136.33864" gradientUnits="userSpaceOnUse" id="color-1"><stop offset="0" stop-color="#7d542d"/><stop offset="1" stop-color="#000000"/></linearGradient><linearGradient x1="272.46653" y1="117.60216" x2="289.49291" y2="197.3636" gradientUnits="userSpaceOnUse" id="color-2"><stop offset="0" stop-color="#996237"/><stop offset="1" stop-color="#6f5927"/></linearGradient><linearGradient x1="364.7033" y1="119.06149" x2="349.76227" y2="201.01882" gradientUnits="userSpaceOnUse" id="color-3"><stop offset="0" stop-color="#996237"/><stop offset="1" stop-color="#6f5927"/></linearGradient><linearGradient x1="320.04836" y1="66.85679" x2="320.37894" y2="113.60784" gradientUnits="userSpaceOnUse" id="color-4"><stop offset="0" stop-color="#7d542d"/><stop offset="1" stop-color="#3b2815"/></linearGradient></defs><g transform="translate(-226.15341,-65.47643)"><g stroke-miterlimit="10"><path d="M407.74216,121.70277c0.05469,7.73366 -39.9709,14.28637 -89.39965,14.63588c-49.42875,0.34951 -89.54299,-5.63652 -89.59768,-13.37018c-0.02036,-2.87811 5.51034,-5.59266 15.01089,-7.88478c3.7194,-0.89735 8.04725,-1.72995 12.88866,-2.48228c16.02177,-2.48971 37.66794,-4.10029 61.50009,-4.26881c49.42875,-0.34951 89.543,5.63653 89.59768,13.37018z" fill="url(#color-1)" stroke="#000000" stroke-width="2.5" stroke-linecap="butt"/><path d="M269.04656,118.6295c8.2887,-0.30547 17.47443,-0.09229 24.05752,2.987c6.71654,3.14172 10.94057,8.8882 12.72243,14.94988c1.19901,4.07895 4.47818,7.73012 5.94044,11.58202c2.06925,5.45093 2.13851,11.15386 2.74937,16.97966c1.06691,10.1751 -11.18382,20.75069 -20.83365,27.58413c-1.6189,1.14639 -6.04787,5.44506 -7.96209,5.76965c-1.95212,0.33102 -3.66675,-4.94568 -3.99639,-6.00897c-1.77733,-5.73284 -2.10754,-11.88304 0.84325,-18.42971c0.56787,-1.2599 4.19027,-6.73713 3.00284,-7.71233c-0.68617,-0.56354 -4.37412,1.42357 -5.21541,1.75373c-5.14884,2.02063 -10.19542,5.0539 -14.66502,7.9316c-0.72965,0.46979 -3.49426,3.42545 -4.52652,3.08199c-1.6459,-0.54763 0.37197,-6.38599 0.64989,-7.65129c1.69049,-7.69615 3.95966,-15.82512 8.88949,-23.22898c1.62042,-2.43358 3.3726,-4.94962 5.10537,-7.3852c0.19498,-0.27406 0.78669,-0.56732 0.64152,-0.80224c-0.46246,-0.74846 -6.49944,2.2215 -7.25035,2.61474c-4.73219,2.47822 -10.85366,4.83706 -15.21901,8.4681c-0.60343,0.50193 -5.61796,4.53158 -6.09151,4.56001c-0.3605,0.02164 -0.47471,-0.37696 -0.54316,-0.64376c-0.74603,-2.9081 0.86003,-7.18286 1.55559,-10.34927c1.90241,-8.66045 5.53487,-15.82813 14.4537,-22.45738c1.64687,-1.22411 2.37089,-2.34651 4.50103,-2.96382z" fill="url(#color-2)" stroke="#000000" stroke-width="2.5" stroke-linecap="round"/><path d="M369.35209,121.38589c2.14393,0.9177 2.89627,2.19173 4.57317,3.68858c9.08139,8.10641 12.89586,16.1182 15.02078,25.48705c0.77692,3.42544 2.49209,8.13338 1.82223,11.10585c-0.06145,0.27272 -0.16523,0.67863 -0.52591,0.61065c-0.47379,-0.08927 -5.58756,-4.96589 -6.20335,-5.57064c-4.45493,-4.37502 -10.63116,-7.62877 -15.42264,-10.83439c-0.76032,-0.50866 -6.86801,-4.39614 -7.31058,-3.66501c-0.1389,0.22948 0.45977,0.6128 0.66165,0.92616c1.79411,2.78486 3.60971,5.65696 5.29149,8.42564c5.11663,8.4233 7.59415,17.27776 9.48238,25.60342c0.31043,1.36878 2.47752,7.77681 0.84756,8.14796c-1.02228,0.23278 -3.8606,-3.22963 -4.60168,-3.81634c-4.53953,-3.59383 -9.65948,-7.424 -14.85533,-10.19936c-0.84898,-0.45349 -4.58457,-3.01047 -5.25542,-2.50232c-1.1609,0.87935 2.5997,7.1077 3.19963,8.50711c3.11741,7.27169 2.94696,13.71435 1.3201,19.53565c-0.30175,1.07969 -1.87778,6.42798 -3.83645,5.83441c-1.92063,-0.58203 -6.45643,-5.66889 -8.10335,-7.08031c-9.81692,-8.41327 -22.329,-21.09768 -21.52697,-31.69135c0.45921,-6.06545 0.38057,-12.06925 2.30636,-17.55676c1.36087,-3.87775 4.54196,-7.31627 5.634,-11.46639c1.62285,-6.16743 5.69353,-11.69661 12.32162,-14.16736c6.49639,-2.42168 15.66703,-1.49561 23.955,-0.13511z" fill="url(#color-3)" stroke="#000000" stroke-width="2.5" stroke-linecap="round"/><path d="M272.2856,354.08687l-3.22708,-147.25666c0,0 6.6188,-25.74565 16.68438,-26.22207c9.99593,-0.47311 33.69197,-1.19731 54.38739,-2.17685c22.44662,-1.06242 29.63187,25.7658 29.63187,25.7658l1.32431,152.82987z" fill="#7d5e41" stroke="#000000" stroke-width="2.5" stroke-linecap="butt"/><path d="M298.34073,186.40943l21.68534,-17.13779l20.33208,21.34427l-20.79338,18.45543z" fill="#f5c06a" stroke="#000000" stroke-width="2.5" stroke-linecap="butt"/><path d="M374.01552,138.7355c-1.73955,28.50118 -27.55352,53.12475 -57.74997,51.28173c-30.19645,-1.84302 -53.34059,-29.45474 -51.60103,-57.95591c1.73956,-28.50117 27.62882,-50.11187 57.82527,-48.26883c30.19645,1.84302 53.26532,26.44184 51.52577,54.94301z" fill="#f5c06a" stroke="#000000" stroke-width="2.5" stroke-linecap="butt"/><path d="M333.50236,130.05557c0.07387,2.70783 -6.51622,5.08437 -14.71934,5.30814c-8.20314,0.22378 -14.91298,-1.78996 -14.98683,-4.49779c-0.07387,-2.70783 6.51622,-5.08437 14.71934,-5.30814c8.20314,-0.22378 14.91298,1.78996 14.98683,4.49779z" fill-opacity="0.18431" fill="#520000" stroke="none" stroke-width="0" stroke-linecap="butt"/><path d="M372.51342,93.45537c0.03645,5.15502 3.77168,16.3559 -0.37637,18.49828c-8.8961,4.59465 -32.1842,-4.12118 -52.11096,-3.98028c-20.46226,0.14469 -41.79934,7.64434 -50.72773,2.74605c-3.82049,-2.09599 -2.55888,-11.65795 -2.59323,-16.51588c-0.07552,-10.68015 10.13953,-20.10074 25.474,-25.3447c7.94075,-2.71552 14.90962,1.32257 24.87791,1.25209c8.07498,-0.05709 18.07921,-4.7411 24.93859,-2.99465c17.96028,4.57281 30.43487,14.60847 30.51781,26.33907z" fill="url(#color-4)" stroke="#000000" stroke-width="2.5" stroke-linecap="butt"/><path d="M307.08379,129.21132c0.13398,2.23084 -1.74231,4.15851 -4.19079,4.30556c-2.44849,0.14704 -4.54199,-1.54221 -4.67597,-3.77305c-0.13398,-2.23085 1.74231,-4.15852 4.19079,-4.30557c2.44849,-0.14704 4.54199,1.54221 4.67597,3.77306z" fill="#ffffff" stroke="#000000" stroke-width="2.5" stroke-linecap="butt"/><path d="M354.82513,128.54841c0.13398,2.23084 -1.7423,4.15851 -4.19078,4.30556c-2.44849,0.14704 -4.54199,-1.54221 -4.67597,-3.77305c-0.13398,-2.23085 1.7423,-4.15852 4.19078,-4.30557c2.44849,-0.14704 4.54199,1.54221 4.67597,3.77306z" fill="#ffffff" stroke="#000000" stroke-width="2.5" stroke-linecap="butt"/><path d="M269.21716,103.64377l31.85376,-4.00233l13.35107,0.82695l4.84555,-1.88087l13.77178,-2.08244l7.10801,-0.05013l-3.37358,1.11365l-9.22135,3.23409l-2.60801,0.8326l7.06692,-0.5891l10.06159,-1.23883l11.40795,-0.27579l6.22735,-0.3386l-2.71305,0.71858l-9.05506,2.36311l-0.68159,0.38212l5.2035,0.19917l16.47506,1.13892l4.51137,1.29096l0.97722,0.18916l-3.08063,0.05067l-11.37473,0.40607l-4.16398,0.11528l2.94837,0.53569l9.77781,2.91272l0.82666,0.31865l-1.03748,0.05801l-8.16137,-0.17022l-1.04612,-0.00999l-3.12444,-0.07195l4.08875,0.44194l9.2807,3.11471l0.82086,0.32221l-1.04567,0.00767l-10.81893,-1.87268l-34.10285,-7.25991l-9.25356,0.21123l-29.83635,1.15784l-15.16729,0.8747l-1.19485,-2.88126z" fill="#ffad00" stroke="#000000" stroke-width="2.5" stroke-linecap="round"/><path d="M408.94675,118.98519c0.01907,2.6976 -4.44502,3.22519 -12.2648,2.74366c-15.61747,-0.9617 -44.6198,-5.94844 -78.02527,-5.71223c-50.13181,0.35449 -91.1961,12.33747 -91.25327,4.25227c-0.05717,-8.0852 40.53634,-14.92689 90.66816,-15.28138c50.13181,-0.35449 90.81802,5.91248 90.87519,13.99767z" fill="#7d542d" stroke="#000000" stroke-width="2.5" stroke-linecap="butt"/><path d="M278.60999,127.25138c0,0 7.14688,-3.19101 11.75126,-3.29442c4.68019,-0.10511 16.10614,2.66879 16.10614,2.66879" fill="none" stroke="#000000" stroke-width="2.5" stroke-linecap="round"/><path d="M266.78911,96.93299l-0.04206,-5.94915c0,0 34.45297,-2.31299 51.97579,-2.43689c17.73837,-0.12543 53.81566,1.68884 53.81566,1.68884l0.04206,5.94915c0,0 -36.03912,-2.33189 -53.81933,-2.20616c-17.47846,0.12358 -51.97213,2.95421 -51.97213,2.95421z" fill="#ffffff" stroke="#000000" stroke-width="2.5" stroke-linecap="butt"/><path d="M323.22136,356.18489l-1.47727,-146.5069" fill="none" stroke="#000000" stroke-width="2.5" stroke-linecap="round"/><path d="M329.30851,218.45086l0.38824,-7.50515" fill="none" stroke="#000000" stroke-width="2.5" stroke-linecap="round"/><path d="M330.80401,242.71273l-0.5037,-8.82278" fill="none" stroke="#000000" stroke-width="2.5" stroke-linecap="round"/><path d="M331.00684,271.39692l0.09361,13.23886" fill="none" stroke="#000000" stroke-width="2.5" stroke-linecap="round"/><path d="M331.23462,303.61148l-0.36015,11.47679" fill="none" stroke="#000000" stroke-width="2.5" stroke-linecap="round"/><path d="M267.30612,312.44855l-0.12169,-17.21052c0,0 36.87683,3.71109 54.74869,3.58473c18.01895,-0.12741 52.92734,-4.3461 52.92734,-4.3461l0.12169,17.21052c0,0 -34.35491,5.98005 -51.59097,6.10193c-18.55814,0.13122 -56.08505,-5.34055 -56.08505,-5.34055z" fill="#624122" stroke="#000000" stroke-width="2.5" stroke-linecap="butt"/><path d="M352.22339,206.51028l6.08205,9.90788l6.84089,-0.04837l-6.16915,7.09215l0.69373,10.15329l-6.88926,-6.79251l-9.27865,7.11416l3.02888,-11.42347l-9.3666,-5.32384l9.73723,-0.89809z" fill="#ffffff" stroke="#000000" stroke-width="2.5" stroke-linecap="round"/><path d="M349.88223,219.69132l2.46025,-10.2456l2.41008,10.21115l7.09759,-1.90101l-5.7153,4.52134l2.2008,8.16699l-5.60452,-7.36362l-7.15091,8.1357l3.73618,-8.89084l-7.04495,-4.43111z" fill-opacity="0.33725" fill="#000000" stroke="#000000" stroke-width="0" stroke-linecap="round"/><path d="M324.78168,181.18c0.04879,1.56092 -2.17228,2.82991 -4.96083,2.83437c-2.78858,0.00446 -5.08868,-1.2573 -5.13745,-2.81821c-0.04879,-1.56092 2.17226,-2.82991 4.96082,-2.83437c2.78858,-0.00446 5.08869,1.2573 5.13746,2.81821z" fill="none" stroke="#000000" stroke-width="2.5" stroke-linecap="butt"/><path d="M307.01724,133.76737c0,0 -11.38558,2.9352 -16.06678,2.89628c-4.60538,-0.03829 -11.79668,-3.12791 -11.79668,-3.12791" fill="none" stroke="#000000" stroke-width="2.5" stroke-linecap="round"/><path d="M327.10639,125.69325c0,0 7.14688,-3.19101 11.75126,-3.29443c4.68019,-0.10511 16.10614,2.66879 16.10614,2.66879" fill="none" stroke="#000000" stroke-width="2.5" stroke-linecap="round"/><path d="M355.51366,132.20925c0,0 -11.38558,2.9352 -16.06678,2.89628c-4.60538,-0.03829 -11.79668,-3.12791 -11.79668,-3.12791" fill="none" stroke="#000000" stroke-width="2.5" stroke-linecap="round"/></g></g></svg>