<svg version="1.1" xmlns="http://www.w3.org/2000/svg" xmlns:xlink="http://www.w3.org/1999/xlink" width="160.7747" height="324.36473" viewBox="0,0,160.7747,324.36473"><defs><linearGradient x1="309.12038" y1="166.94185" x2="320.21544" y2="345.78641" gradientUnits="userSpaceOnUse" id="color-1"><stop offset="0" stop-color="#2982c1"/><stop offset="1" stop-color="#000000"/></linearGradient><linearGradient x1="309.18086" y1="165.43867" x2="309.18086" y2="344.28323" gradientUnits="userSpaceOnUse" id="color-2"><stop offset="0" stop-color="#2982c1"/><stop offset="1" stop-color="#000000"/></linearGradient><linearGradient x1="385.97009" y1="136.23368" x2="346.49885" y2="136.23368" gradientUnits="userSpaceOnUse" id="color-3"><stop offset="0" stop-color="#a636f3"/><stop offset="1" stop-color="#581b7d"/></linearGradient><linearGradient x1="231.57387" y1="140.75474" x2="271.0451" y2="140.75474" gradientUnits="userSpaceOnUse" id="color-4"><stop offset="0" stop-color="#a636f3"/><stop offset="1" stop-color="#581b7d"/></linearGradient><radialGradient cx="272.29723" cy="92.37041" r="25.84387" gradientUnits="userSpaceOnUse" id="color-5"><stop offset="0" stop-color="#000000" stop-opacity="0.92549"/><stop offset="1" stop-color="#000000" stop-opacity="0"/></radialGradient><linearGradient x1="226.23216" y1="68.08878" x2="291.3449" y2="75.30662" gradientUnits="userSpaceOnUse" id="color-6"><stop offset="0" stop-color="#a636f3"/><stop offset="1" stop-color="#16031b"/></linearGradient><radialGradient cx="344.56587" cy="87.22477" r="25.35587" gradientUnits="userSpaceOnUse" id="color-7"><stop offset="0" stop-color="#000000" stop-opacity="0.92549"/><stop offset="1" stop-color="#000000" stop-opacity="0"/></radialGradient><linearGradient x1="389.67033" y1="65.52991" x2="324.55759" y2="72.74775" gradientUnits="userSpaceOnUse" id="color-8"><stop offset="0" stop-color="#a636f3"/><stop offset="1" stop-color="#16031b"/></linearGradient><linearGradient x1="387.67013" y1="139.42668" x2="348.20264" y2="138.88268" gradientUnits="userSpaceOnUse" id="color-9"><stop offset="0" stop-color="#a636f3"/><stop offset="1" stop-color="#581b7d"/></linearGradient><linearGradient x1="233.22627" y1="141.81942" x2="272.69375" y2="142.36341" gradientUnits="userSpaceOnUse" id="color-10"><stop offset="0" stop-color="#a636f3"/><stop offset="1" stop-color="#581b7d"/></linearGradient><radialGradient cx="274.6126" cy="94.00094" r="25.84387" gradientUnits="userSpaceOnUse" id="color-11"><stop offset="0" stop-color="#000000" stop-opacity="0.92549"/><stop offset="1" stop-color="#000000" stop-opacity="0"/></radialGradient><linearGradient x1="228.88655" y1="69.08674" x2="293.89363" y2="77.20128" gradientUnits="userSpaceOnUse" id="color-12"><stop offset="0" stop-color="#a636f3"/><stop offset="1" stop-color="#16031b"/></linearGradient><radialGradient cx="346.94529" cy="89.8518" r="25.35587" gradientUnits="userSpaceOnUse" id="color-13"><stop offset="0" stop-color="#000000" stop-opacity="0.92549"/><stop offset="1" stop-color="#000000" stop-opacity="0"/></radialGradient><linearGradient x1="392.34447" y1="68.78063" x2="327.13842" y2="75.10038" gradientUnits="userSpaceOnUse" id="color-14"><stop offset="0" stop-color="#a636f3"/><stop offset="1" stop-color="#16031b"/></linearGradient></defs><g transform="translate(-230.22195,-26.5739)"><g stroke-miterlimit="10"><path d="M276.55051,342.14778l-11.09182,-147.27579c0,0 4.48905,-25.69821 13.47048,-26.10344c8.91929,-0.40242 30.08522,-0.95905 48.55159,-1.79223c20.02895,-0.90368 28.04507,16.2629 28.04507,16.2629l9.60825,162.54719z" fill="url(#color-1)" stroke="#000000" stroke-width="2.5" stroke-linecap="butt"/><path d="M333.54084,178.72446c0.27578,8.51921 -9.20508,15.13803 -21.1761,14.78356c-11.97102,-0.35448 -21.89899,-7.54801 -22.17477,-16.06723c-0.27578,-8.51921 9.20506,-15.13803 21.17608,-14.78356c11.97102,0.35448 21.899,7.54802 22.17478,16.06723z" fill="#f2f2f2" stroke="#000000" stroke-width="1.5" stroke-linecap="butt"/><path d="M327.90713,179.00469c0.2072,6.40064 -6.91595,11.37348 -15.90999,11.10716c-8.99405,-0.26633 -16.45311,-5.67096 -16.66031,-12.07161c-0.2072,-6.40064 6.91594,-11.37348 15.90998,-11.10716c8.99405,0.26633 16.45313,5.67097 16.66032,12.07161z" fill="#a636f3" stroke="#000000" stroke-width="2.5" stroke-linecap="butt"/><path d="M285.76103,241.55506l23.06086,-12.06784l20.33836,12.394l14.61881,-6.197" fill="none" stroke="#ffffff" stroke-width="1.5" stroke-linecap="round"/><path d="M285.9741,248.512l23.06086,-12.06784l20.33837,12.394l14.61881,-6.197" fill="none" stroke="#ffffff" stroke-width="1.5" stroke-linecap="round"/><path d="M285.84077,255.14279l23.06086,-12.06784l20.33837,12.394l14.61881,-6.197" fill="none" stroke="#ffffff" stroke-width="1.5" stroke-linecap="round"/><path d="M288.85855,283.38721c13.71146,5.45039 2.32621,-0.88081 14.99456,12.92711c1.5141,1.65028 8.37407,11.55824 8.37407,11.55824c0,0 -9.72072,1.84434 -14.31432,-0.93955c-0.58967,-0.35737 -5.51285,-3.09354 -5.73288,-2.425c-0.25626,0.7787 2.8004,3.67325 3.18701,4.09488c1.45492,1.58677 12.03842,13.12166 12.03842,13.12166l-3.85508,10.44207c0,0 -8.03069,-6.34421 -10.06289,-8.40976c-0.28038,-0.28498 -3.60789,-3.12962 -3.63622,-3.08075c-0.11672,0.20139 3.54345,5.88977 3.54345,5.88977l4.23866,19.12754l-3.29172,3.56529l-6.4231,-4.85079c0,0 -8.84942,-8.33838 -13.22211,-13.10445c-6.93308,-7.55682 -18.78985,-19.51726 -21.97665,-31.2752c-0.77095,-2.84454 1.19757,-7.08522 1.23186,-9.86579c0.08503,-6.89662 3.47927,-10.67982 5.24209,-16.27122c1.61453,-5.12109 1.96944,-11.34365 4.52817,-15.65116c1.31675,-2.2167 4.30382,-8.50069 6.3833,-9.11365c1.52424,-0.44931 5.11251,2.38563 6.64535,3.49133c4.5347,3.2711 17.1946,10.34919 20.40716,14.91821c0.65886,0.93706 4.72871,5.78371 4.15561,6.44966c-0.60003,0.69723 -11.89876,1.03466 -13.97964,0.77854c-1.31931,-0.16239 -2.66379,0.13133 -1.12643,2.48805c2.26077,3.46567 2.65132,6.13495 2.65132,6.13495z" fill="#a636f3" stroke="#000000" stroke-width="2.5" stroke-linecap="round"/><path d="M287.66652,300.78882c-0.33837,0.90947 -3.3126,-1.07713 -6.64311,-4.43718c-3.33051,-3.36005 -5.75612,-6.82117 -5.41775,-7.73064c0.33837,-0.90947 3.31259,1.07712 6.64311,4.43717c3.33051,3.36005 5.75613,6.82118 5.41775,7.73065z" fill-opacity="0.23137" fill="#000000" stroke="none" stroke-width="0" stroke-linecap="butt"/><path d="M285.67232,317.0845c-0.31018,0.83368 -3.82188,-1.77968 -7.84366,-5.8371c-4.02176,-4.05742 -7.03058,-8.02244 -6.7204,-8.85612c0.31018,-0.83368 3.82188,1.77968 7.84366,5.8371c4.02176,4.05742 7.03058,8.02245 6.7204,8.85612z" fill-opacity="0.23137" fill="#000000" stroke="none" stroke-width="0" stroke-linecap="butt"/><path d="M282.08985,271.19302c-0.47937,1.28841 -1.58116,1.61337 -2.46092,0.72581c-0.87976,-0.88756 -1.20436,-2.65154 -0.72499,-3.93995c0.47937,-1.28841 1.58117,-1.61336 2.46091,-0.7258c0.87976,0.88756 1.20435,2.65153 0.72499,3.93994z" fill-opacity="0.23137" fill="#000000" stroke="none" stroke-width="0" stroke-linecap="butt"/><path d="M274.55561,278.75595c0,0 -0.85763,0.51403 -1.81025,0.86491c-0.76179,0.28058 -1.58429,0.45684 -2.0776,0.18255c-0.52976,-0.29458 -1.1898,-1.2736 -1.76534,-2.28312c-0.74241,-1.30224 -1.34421,-2.65524 -1.34421,-2.65524" fill="none" stroke-opacity="0.40392" stroke="#000000" stroke-width="2.5" stroke-linecap="round"/><path d="M276.98057,288.499c0,0 -0.85764,0.51402 -1.81026,0.8649c-0.76179,0.28058 -1.58428,0.45687 -2.0776,0.18257c-0.52976,-0.29458 -1.18982,-1.27363 -1.76536,-2.28315c-0.74241,-1.30224 -1.34419,-2.65521 -1.34419,-2.65521" fill="none" stroke-opacity="0.40392" stroke="#000000" stroke-width="2.5" stroke-linecap="round"/><path d="M279.40551,298.24205c0,0 -0.85764,0.51402 -1.81026,0.86491c-0.76179,0.28058 -1.58428,0.45686 -2.07759,0.18256c-0.52976,-0.29458 -1.18982,-1.27361 -1.76536,-2.28313c-0.74241,-1.30224 -1.34418,-2.65522 -1.34418,-2.65522" fill="none" stroke-opacity="0.40392" stroke="#000000" stroke-width="2.5" stroke-linecap="round"/><g><path d="M313.24705,252.18859c0,0 1.3649,-2.29408 4.63491,-4.36058c2.22367,-1.40526 1.1888,-2.37925 -0.00081,-2.91346c-1.87629,-0.84257 -11.39649,-7.03432 -11.63959,-7.99866c-0.23219,-0.92106 5.11655,-3.33868 6.04136,-3.87267c4.50925,-2.60372 18.05717,-2.64156 23.19424,-3.34345c1.73645,-0.23724 5.89661,-1.0233 7.02492,0.18976c1.5393,1.65491 1.66269,9.08724 1.93091,11.84583c0.5212,5.36052 -1.57987,11.36649 -2.17947,16.99709c-0.65467,6.1477 0.78272,11.45223 -1.80929,17.94846c-1.04503,2.61914 -1.00213,7.61019 -2.75966,9.8704c-7.26483,9.34259 -22.01317,14.3657 -30.85463,17.82971c-5.57628,2.18474 -16.35651,5.3833 -16.35651,5.3833l-7.36033,1.19766l-1.43403,-5.04735l11.01065,-15.69006c0,0 5.32406,-3.41814 5.30217,-3.66726c-0.00533,-0.06044 -3.94652,0.87028 -4.29611,0.99106c-2.53383,0.87553 -11.84424,2.63426 -11.84424,2.63426l0.74176,-11.77379c0,0 13.49638,-5.28718 15.35213,-6.015c0.49311,-0.19339 4.22226,-1.31168 4.30424,-2.17345c0.07037,-0.73987 -5.19183,-0.74046 -5.83356,-0.7128c-4.99914,0.21546 -12.58926,-6.56539 -12.58926,-6.56539c0,0 9.68741,-5.70158 11.61826,-6.45806c16.15533,-6.3294 3.9847,-6.32741 17.80189,-4.2956z" fill="#a636f3" stroke="#000000" stroke-width="2.5" stroke-linecap="round"/><path d="M315.15609,264.67358c4.14291,-1.41135 7.45082,-1.72308 7.38845,-0.69628c-0.06237,1.02682 -3.47143,3.00335 -7.61432,4.41469c-4.14291,1.41135 -7.45083,1.72307 -7.38846,0.69627c0.06237,-1.02682 3.47143,-3.00334 7.61433,-4.41468z" fill-opacity="0.23137" fill="#000000" stroke="none" stroke-width="0" stroke-linecap="butt"/><path d="M312.11072,280.58037c5.00276,-1.70428 9.01194,-2.32283 8.95475,-1.38159c-0.05718,0.94124 -4.15905,3.08586 -9.16181,4.79016c-5.00276,1.70428 -9.01194,2.32283 -8.95475,1.38159c0.05718,-0.94124 4.15905,-3.08586 9.16181,-4.79016z" fill-opacity="0.23137" fill="#000000" stroke="none" stroke-width="0" stroke-linecap="butt"/><path d="M334.73295,255.29336c0,0 -1.03675,0.95281 -2.17402,1.78499c-0.88163,0.64512 -1.82366,1.21776 -2.38995,1.21784c-0.52734,0.00006 -1.16176,-0.59259 -1.70402,-1.25127c-0.67809,-0.82369 -1.21201,-1.7506 -1.21201,-1.7506" fill="none" stroke-opacity="0.40392" stroke="#000000" stroke-width="2.5" stroke-linecap="round"/><path d="M328.89733,263.14717c0,0 -1.03675,0.95279 -2.174,1.78499c-0.88163,0.64512 -1.82369,1.21778 -2.38998,1.21786c-0.52734,0.00006 -1.16174,-0.59261 -1.704,-1.25129c-0.67809,-0.82369 -1.21203,-1.7506 -1.21203,-1.7506" fill="none" stroke-opacity="0.40392" stroke="#000000" stroke-width="2.5" stroke-linecap="round"/><path d="M323.06171,271.00099c0,0 -1.03675,0.95279 -2.174,1.78498c-0.88163,0.64512 -1.82368,1.21775 -2.38997,1.21784c-0.52734,0.00006 -1.16175,-0.59261 -1.704,-1.25128c-0.67809,-0.82369 -1.21202,-1.7506 -1.21202,-1.7506" fill="none" stroke-opacity="0.40392" stroke="#000000" stroke-width="2.5" stroke-linecap="round"/></g><path d="" fill="url(#color-2)" stroke="#000000" stroke-width="2.5" stroke-linecap="butt"/><path d="" fill="#f2f2f2" stroke="#000000" stroke-width="1.5" stroke-linecap="butt"/><path d="" fill="#a636f3" stroke="#000000" stroke-width="2.5" stroke-linecap="butt"/><path d="" fill="url(#color-3)" stroke="#000000" stroke-width="2.5" stroke-linecap="round"/><path d="" fill="url(#color-4)" stroke="#000000" stroke-width="2.5" stroke-linecap="round"/><path d="" fill="#a636f3" stroke="#000000" stroke-width="2.5" stroke-linecap="butt"/><path d="" fill-opacity="0.23137" fill="#000000" stroke="none" stroke-width="0" stroke-linecap="butt"/><path d="" fill="#ffffff" stroke="#000000" stroke-width="2.5" stroke-linecap="butt"/><path d="" fill="#ffffff" stroke="#000000" stroke-width="2.5" stroke-linecap="butt"/><path d="" fill="url(#color-5)" stroke="#000000" stroke-width="0" stroke-linecap="butt"/><path d="" fill="url(#color-6)" stroke="#000000" stroke-width="2.5" stroke-linecap="round"/><path d="" fill="url(#color-7)" stroke="#000000" stroke-width="0" stroke-linecap="butt"/><path d="" fill="url(#color-8)" stroke="#000000" stroke-width="2.5" stroke-linecap="round"/><path d="" fill="none" stroke-opacity="0.40392" stroke="#000000" stroke-width="2.5" stroke-linecap="round"/><path d="" fill="none" stroke-opacity="0.40392" stroke="#000000" stroke-width="2.5" stroke-linecap="round"/><path d="" fill="none" stroke-opacity="0.40392" stroke="#000000" stroke-width="2.5" stroke-linecap="round"/><path d="" fill="none" stroke-opacity="0.40392" stroke="#000000" stroke-width="2.5" stroke-linecap="round"/><path d="" fill="none" stroke-opacity="0.40392" stroke="#000000" stroke-width="2.5" stroke-linecap="round"/><path d="" fill="none" stroke-opacity="0.40392" stroke="#000000" stroke-width="2.5" stroke-linecap="round"/><path d="" fill="none" stroke-opacity="0.40392" stroke="#000000" stroke-width="2.5" stroke-linecap="round"/><path d="" fill="none" stroke-opacity="0.40392" stroke="#000000" stroke-width="2.5" stroke-linecap="round"/><path d="" fill="none" stroke-opacity="0.40392" stroke="#000000" stroke-width="2.5" stroke-linecap="round"/><path d="" fill="none" stroke="#000000" stroke-width="2.5" stroke-linecap="round"/><path d="" fill="none" stroke="#000000" stroke-width="2.5" stroke-linecap="round"/><path d="" fill="none" stroke="#000000" stroke-width="2.5" stroke-linecap="round"/><path d="" fill="none" stroke="#000000" stroke-width="2.5" stroke-linecap="round"/><path d="" fill="none" stroke="#000000" stroke-width="2.5" stroke-linecap="round"/><path d="" fill="none" stroke="#000000" stroke-width="2.5" stroke-linecap="round"/><path d="" fill="none" stroke="#ffffff" stroke-width="1.5" stroke-linecap="round"/><path d="" fill="none" stroke="#ffffff" stroke-width="1.5" stroke-linecap="round"/><path d="" fill="none" stroke="#ffffff" stroke-width="1.5" stroke-linecap="round"/><g><path d="" fill="#a636f3" stroke="#000000" stroke-width="2.5" stroke-linecap="round"/><path d="" fill-opacity="0.23137" fill="#000000" stroke="none" stroke-width="0" stroke-linecap="butt"/><path d="" fill-opacity="0.23137" fill="#000000" stroke="none" stroke-width="0" stroke-linecap="butt"/><path d="" fill-opacity="0.23137" fill="#000000" stroke="none" stroke-width="0" stroke-linecap="butt"/><path d="" fill="none" stroke-opacity="0.40392" stroke="#000000" stroke-width="2.5" stroke-linecap="round"/><path d="" fill="none" stroke-opacity="0.40392" stroke="#000000" stroke-width="2.5" stroke-linecap="round"/><path d="" fill="none" stroke-opacity="0.40392" stroke="#000000" stroke-width="2.5" stroke-linecap="round"/></g><g><path d="" fill="#a636f3" stroke="#000000" stroke-width="2.5" stroke-linecap="round"/><path d="" fill-opacity="0.23137" fill="#000000" stroke="none" stroke-width="0" stroke-linecap="butt"/><path d="" fill-opacity="0.23137" fill="#000000" stroke="none" stroke-width="0" stroke-linecap="butt"/><path d="" fill-opacity="0.23137" fill="#000000" stroke="none" stroke-width="0" stroke-linecap="butt"/><path d="" fill="none" stroke-opacity="0.40392" stroke="#000000" stroke-width="2.5" stroke-linecap="round"/><path d="" fill="none" stroke-opacity="0.40392" stroke="#000000" stroke-width="2.5" stroke-linecap="round"/><path d="" fill="none" stroke-opacity="0.40392" stroke="#000000" stroke-width="2.5" stroke-linecap="round"/></g><path d="M376.31029,143.3962c1.14392,-0.16742 1.78621,0.84338 1.43459,2.25765c-0.35163,1.41427 -1.56403,2.69648 -2.70795,2.86389c-1.14392,0.16742 -1.78621,-0.84338 -1.43458,-2.25765c0.35163,-1.41427 1.56402,-2.69649 2.70795,-2.86389z" fill-opacity="0.23137" fill="#000000" stroke="none" stroke-width="0" stroke-linecap="butt"/><path d="M366.96554,109.07709c4.78478,0.48417 8.10502,-1.83104 12.4878,-2.83844c0.66751,-0.15344 4.36579,-1.78314 4.85704,-1.16878c0.37879,0.47371 -1.18058,3.63523 -1.37143,4.18714c-0.64981,1.87901 -5.97875,12.05335 -5.86726,12.83195c0.41113,2.87135 9.14998,-1.52169 10.51401,-0.25575c1.24943,1.15956 -1.58682,5.15317 -2.10118,6.05056c-1.45528,2.5389 -8.36349,15.61074 -8.28936,17.66515c0.11798,3.26975 4.36747,6.98772 2.85421,11.28833c-0.74257,2.11035 -2.52089,-1.03192 -3.47976,-0.65955c-0.97658,0.37925 -0.71007,4.5216 -0.71314,5.39434c-0.0125,3.55704 -0.09325,7.53868 -0.82195,11.05444c-0.07506,0.36215 -0.02404,0.91332 -0.33555,1.05329c-0.77591,0.34865 -9.26622,-8.72978 -10.63483,-9.76896c-6.66243,-5.05873 -13.13221,-12.88745 -15.01405,-22.13816c-2.84295,-13.97543 1.95502,-33.66355 17.54063,-32.08911z" fill="url(#color-9)" stroke="#000000" stroke-width="2.5" stroke-linecap="round"/><path d="M255.11746,112.66849c15.62307,-1.14428 19.87658,18.66859 16.64953,32.56035c-2.13607,9.19532 -8.81918,16.84274 -15.6185,21.71594c-1.39674,1.00108 -10.13405,9.84205 -10.90004,9.47215c-0.30754,-0.1485 -0.24135,-0.69806 -0.3064,-1.06213c-0.63151,-3.5345 -0.60251,-7.51684 -0.51696,-11.07288c0.02098,-0.8725 0.40156,-5.00591 -0.5642,-5.41194c-0.94823,-0.39866 -2.81247,2.69341 -3.4966,0.56339c-1.39415,-4.34066 2.95621,-7.94011 3.16425,-11.20538c0.13073,-2.05159 -6.41458,-15.30886 -7.79932,-17.88691c-0.48944,-0.91123 -3.21454,-4.98149 -1.93362,-6.10618c1.3984,-1.22784 10.01284,3.40438 10.50297,0.54546c0.13291,-0.77524 -4.91357,-11.09258 -5.51134,-12.98879c-0.17559,-0.55695 -1.6472,-3.76024 -1.25551,-4.22333c0.508,-0.60058 4.15996,1.13043 4.82298,1.30221c4.35335,1.12782 7.60852,3.53367 12.40482,3.18156z" fill="url(#color-10)" stroke="#000000" stroke-width="2.5" stroke-linecap="round"/><path d="M365.81059,128.46732c-2.33348,28.45871 -28.65529,52.53866 -58.80674,50.06638c-30.15146,-2.47227 -52.71481,-30.56059 -50.38133,-59.01928c2.33348,-28.4587 28.66774,-49.52486 58.81919,-47.05257c30.15146,2.47227 52.70239,27.54679 50.3689,56.00548z" fill="#a636f3" stroke="#000000" stroke-width="2.5" stroke-linecap="butt"/><path d="M325.55252,118.0042c-0.02358,2.70874 -6.69485,4.84671 -14.90074,4.7753c-8.20589,-0.07141 -14.83896,-2.32516 -14.81536,-5.03391c0.02358,-2.70874 6.69486,-4.84671 14.90075,-4.77529c8.20589,0.07141 14.83896,2.32516 14.81537,5.03391z" fill-opacity="0.23137" fill="#000000" stroke="none" stroke-width="0" stroke-linecap="butt"/><path d="M290.40129,115.6341c-0.18262,2.22739 -2.31251,3.87055 -4.7572,3.6701c-2.4447,-0.20046 -4.27846,-2.16861 -4.09583,-4.39599c0.18263,-2.2274 2.0511,-2.76019 4.4958,-2.55974c2.4447,0.20046 4.53986,1.05824 4.35722,3.28565z" fill="#ffffff" stroke="#000000" stroke-width="2.5" stroke-linecap="butt"/><path d="M339.57064,116.76405c-0.18263,2.2274 -2.31251,3.87055 -4.7572,3.6701c-2.4447,-0.20046 -4.27845,-2.16861 -4.09582,-4.39599c0.18262,-2.22739 2.22049,-2.94822 4.6652,-2.74777c2.4447,0.20046 4.37047,1.24629 4.18784,3.47368z" fill="#ffffff" stroke="#000000" stroke-width="2.5" stroke-linecap="butt"/><path d="M279.55622,114.41857c-12.35899,6.29948 -24.59127,2.26495 -27.32157,-9.01139c-2.73027,-11.27635 5.07533,-25.52439 17.43434,-31.82387c12.35899,-6.29948 24.59127,-2.26495 27.32156,9.01139c2.73027,11.27635 -5.07533,25.52438 -17.43433,31.82387z" fill="url(#color-11)" stroke="#000000" stroke-width="0" stroke-linecap="butt"/><path d="M288.46592,92.24093l-14.07798,12.16254l-13.08891,7.25295l-15.89664,-2.97315l-13.91838,-39.3091l2.1375,-38.22016l23.9854,40.68345l36.30677,5.20324z" fill="url(#color-12)" stroke="#000000" stroke-width="2.5" stroke-linecap="round"/><path d="M325.30669,78.06006c2.98263,-10.98539 15.08847,-14.61147 27.03914,-8.09907c11.95067,6.51239 19.22071,20.69715 16.23807,31.68254c-2.98263,10.98539 -15.08848,14.61147 -27.03915,8.09907c-11.95067,-6.51239 -19.2207,-20.69715 -16.23806,-31.68253z" fill="url(#color-13)" stroke="#000000" stroke-width="0" stroke-linecap="butt"/><path d="M327.1228,74.93933l36.43638,-4.2006l25.09759,-40.00691l1.08328,38.26455l-14.99651,38.91055l-15.97254,2.53389l-12.88402,-7.61093l-13.73742,-12.54594z" fill="url(#color-14)" stroke="#000000" stroke-width="2.5" stroke-linecap="round"/><path d="M303.17905,85.44315c0,0 -1.21478,0.8266 -2.60856,1.56146c-1.08049,0.56968 -2.26857,1.08423 -3.0817,1.1158c-0.75718,0.0294 -1.83852,-0.4136 -2.80644,-0.91498c-1.21044,-0.62701 -2.24353,-1.34534 -2.24353,-1.34534" fill="none" stroke-opacity="0.40392" stroke="#000000" stroke-width="2.5" stroke-linecap="round"/><path d="M332.8174,86.79468c0,0 -1.3845,0.49208 -2.91894,0.85007c-1.18953,0.27752 -2.4692,0.47447 -3.26382,0.29913c-0.73995,-0.16329 -1.67387,-0.86564 -2.4833,-1.59577c-1.01223,-0.91307 -1.82977,-1.86957 -1.82977,-1.86957" fill="none" stroke-opacity="0.40392" stroke="#000000" stroke-width="2.5" stroke-linecap="round"/><path d="M317.79704,82.61973c0,0 -1.1689,0.89027 -2.52147,1.69851c-1.04855,0.62657 -2.20746,1.20382 -3.01773,1.27875c-0.75452,0.06978 -1.85797,-0.31485 -2.8513,-0.76383c-1.24219,-0.56147 -2.31216,-1.22362 -2.31216,-1.22362" fill="none" stroke-opacity="0.40392" stroke="#000000" stroke-width="2.5" stroke-linecap="round"/><path d="M362.31664,126.35269c0,0 -0.92033,0.49847 -1.93945,0.86356c-0.79005,0.28303 -1.63949,0.48591 -2.16558,0.31427c-0.48988,-0.15985 -1.10588,-0.85782 -1.63923,-1.58414c-0.66695,-0.90831 -1.20462,-1.86095 -1.20462,-1.86095" fill="none" stroke-opacity="0.40392" stroke="#000000" stroke-width="2.5" stroke-linecap="round"/><path d="M362.6464,134.86036c0,0 -0.92033,0.49847 -1.93945,0.86357c-0.79005,0.28303 -1.63949,0.48591 -2.16558,0.31427c-0.48988,-0.15985 -1.10588,-0.85782 -1.63923,-1.58414c-0.66695,-0.90831 -1.20462,-1.86095 -1.20462,-1.86095" fill="none" stroke-opacity="0.40392" stroke="#000000" stroke-width="2.5" stroke-linecap="round"/><path d="M360.69985,143.33666c0,0 -0.92033,0.49847 -1.93945,0.86357c-0.79005,0.28303 -1.63948,0.48591 -2.16557,0.31427c-0.48989,-0.15984 -1.10589,-0.85781 -1.63924,-1.58413c-0.66695,-0.90831 -1.20462,-1.86095 -1.20462,-1.86095" fill="none" stroke-opacity="0.40392" stroke="#000000" stroke-width="2.5" stroke-linecap="round"/><path d="M266.7071,121.05205c0,0 -0.56371,0.93746 -1.25545,1.82704c-0.55316,0.71136 -1.18816,1.39207 -1.68227,1.53837c-0.53062,0.15708 -1.37414,-0.06913 -2.15609,-0.37383c-1.00868,-0.39304 -1.91492,-0.91669 -1.91492,-0.91669" fill="none" stroke-opacity="0.40392" stroke="#000000" stroke-width="2.5" stroke-linecap="round"/><path d="M267.77344,126.94289c0,0 -0.56371,0.93746 -1.25545,1.82703c-0.55316,0.71136 -1.18816,1.39207 -1.68228,1.53837c-0.53062,0.15708 -1.37414,-0.06913 -2.15608,-0.37383c-1.00868,-0.39305 -1.91492,-0.9167 -1.91492,-0.9167" fill="none" stroke-opacity="0.40392" stroke="#000000" stroke-width="2.5" stroke-linecap="round"/><path d="M268.12491,133.87467c0,0 -0.56371,0.93746 -1.25545,1.82703c-0.55316,0.71136 -1.18816,1.39207 -1.68228,1.53837c-0.53062,0.15708 -1.37414,-0.06913 -2.15608,-0.37383c-1.00868,-0.39305 -1.91492,-0.9167 -1.91492,-0.9167" fill="none" stroke-opacity="0.40392" stroke="#000000" stroke-width="2.5" stroke-linecap="round"/><path d="M304.68529,146.21545l3.44477,5.20503" fill="none" stroke="#000000" stroke-width="2.5" stroke-linecap="round"/><path d="M313.27691,152.19472l4.76856,-5.79511" fill="none" stroke="#000000" stroke-width="2.5" stroke-linecap="round"/><path d="M348.58471,149.08315l2.87297,0.90523l-23.03324,17.28373l-18.70411,-3.72034l-13.61865,4.14046l-25.17236,-15.92836l4.05079,-0.80979" fill="none" stroke="#000000" stroke-width="2.5" stroke-linecap="round"/><path d="M242.36363,44.35155c0,0 46.20894,1.49875 67.91529,2.60824c22.99968,1.17561 66.42747,4.25857 66.42747,4.25857" fill="none" stroke="#000000" stroke-width="2.5" stroke-linecap="round"/><path d="M374.53648,52.6855c0,0 -14.17277,6.03901 -35.90459,6.00558c-20.44086,-0.03145 -90.85074,-6.20057 -90.85074,-6.20057" fill="none" stroke="#000000" stroke-width="2.5" stroke-linecap="round"/><path d="M372.13742,57.82623c0,0 -9.94339,8.13026 -30.84118,8.19714c-19.64021,0.06286 -91.00712,-7.80711 -91.00712,-7.80711" fill="none" stroke="#000000" stroke-width="2.5" stroke-linecap="round"/></g></g></svg>